<svg width="40" height="40" viewBox="0 0 40 40" fill="none" xmlns="http://www.w3.org/2000/svg">
<path d="M20 18.75C20.3315 18.75 20.6495 18.8817 20.8839 19.1161C21.1183 19.3505 21.25 19.6685 21.25 20V22.5H23.75C24.0815 22.5 24.3995 22.6317 24.6339 22.8661C24.8683 23.1005 25 23.4185 25 23.75C25 24.0815 24.8683 24.3995 24.6339 24.6339C24.3995 24.8683 24.0815 25 23.75 25H21.25V27.5C21.25 27.8315 21.1183 28.1495 20.8839 28.3839C20.6495 28.6183 20.3315 28.75 20 28.75C19.6685 28.75 19.3505 28.6183 19.1161 28.3839C18.8817 28.1495 18.75 27.8315 18.75 27.5V25H16.25C15.9185 25 15.6005 24.8683 15.3661 24.6339C15.1317 24.3995 15 24.0815 15 23.75C15 23.4185 15.1317 23.1005 15.3661 22.8661C15.6005 22.6317 15.9185 22.5 16.25 22.5H18.75V20C18.75 19.6685 18.8817 19.3505 19.1161 19.1161C19.3505 18.8817 19.6685 18.75 20 18.75ZM36.25 13.75V31.25C36.25 31.913 35.9866 32.5489 35.5178 33.0178C35.0489 33.4866 34.413 33.75 33.75 33.75H6.25C5.58696 33.75 4.95107 33.4866 4.48223 33.0178C4.01339 32.5489 3.75 31.913 3.75 31.25V10C3.75 9.33696 4.01339 8.70107 4.48223 8.23223C4.95107 7.76339 5.58696 7.5 6.25 7.5H14.5828C15.1235 7.50134 15.6494 7.67665 16.0828 8L20.4172 11.25H33.75C34.413 11.25 35.0489 11.5134 35.5178 11.9822C35.9866 12.4511 36.25 13.087 36.25 13.75ZM6.25 15H14.5828L17.9172 12.5L14.5828 10H6.25V15ZM33.75 13.75H20.4172L16.0828 17C15.6494 17.3234 15.1235 17.4987 14.5828 17.5H6.25V31.25H33.75V13.75Z" fill="#01AA90"/>
</svg>
