<svg width="40" height="40" viewBox="0 0 40 40" fill="none" xmlns="http://www.w3.org/2000/svg">
<path d="M18.713 34.0532C18.6454 34.3236 18.4894 34.5637 18.2697 34.7352C18.05 34.9068 17.7793 35 17.5005 35C17.3952 35.0006 17.2902 34.988 17.188 34.9625L12.188 33.7125C12.0488 33.6776 11.9167 33.6189 11.7974 33.5391L8.04739 31.0391C7.7716 30.8551 7.5802 30.5691 7.5153 30.244C7.45039 29.9189 7.5173 29.5813 7.70129 29.3055C7.88529 29.0297 8.1713 28.8383 8.49641 28.7734C8.82152 28.7085 9.1591 28.7754 9.43489 28.9594L13.0036 31.3391L17.7943 32.5375C17.9543 32.5764 18.1051 32.6464 18.238 32.7437C18.3709 32.841 18.4833 32.9635 18.5687 33.1044C18.6541 33.2452 18.7108 33.4016 18.7355 33.5644C18.7603 33.7272 18.7526 33.8933 18.713 34.0532ZM39.4458 18.9813C39.3433 19.2928 39.18 19.581 38.9654 19.829C38.7509 20.0771 38.4893 20.2802 38.1958 20.4266L34.4958 22.2766L25.8896 30.8844C25.7368 31.037 25.5472 31.1474 25.3391 31.2049C25.1309 31.2624 24.9115 31.2651 24.7021 31.2125L14.7021 28.7125C14.55 28.6744 14.4064 28.6081 14.2786 28.5172L5.60364 22.3235L1.80989 20.4266C1.21697 20.1302 0.766043 19.6105 0.556249 18.9817C0.346456 18.3529 0.394974 17.6665 0.691135 17.0735L4.57395 9.30943C4.87034 8.71651 5.39008 8.26558 6.01887 8.05579C6.64767 7.846 7.33404 7.89451 7.92707 8.19068L11.3739 9.90943L19.6552 7.5438C19.8799 7.47954 20.118 7.47954 20.3427 7.5438L28.624 9.90943L32.0708 8.19068C32.6639 7.89451 33.3502 7.846 33.979 8.05579C34.6078 8.26558 35.1276 8.71651 35.424 9.30943L39.3068 17.0735C39.4549 17.3665 39.5434 17.686 39.5673 18.0135C39.5911 18.3409 39.5499 18.6699 39.4458 18.9813ZM32.2302 21.0032L27.9786 12.5001H23.0068L16.2505 19.0626C18.2286 20.3266 21.3302 20.6751 24.113 17.8704C24.3303 17.6513 24.621 17.5204 24.9291 17.5028C25.2372 17.4852 25.5409 17.5822 25.7818 17.7751L31.1583 22.0829L32.2302 21.0032ZM2.92707 18.1907L5.69113 19.5735L9.57395 11.8094L6.80989 10.4266L2.92707 18.1907ZM29.3755 23.8532L25.0458 20.386C21.9927 22.886 18.1161 23.2157 14.9036 21.1672C14.5876 20.9662 14.3208 20.6968 14.1229 20.3788C13.925 20.0608 13.8011 19.7025 13.7603 19.3302C13.7195 18.9579 13.7629 18.5812 13.8872 18.2279C14.0115 17.8746 14.2137 17.5538 14.4786 17.2891C14.4824 17.2846 14.4866 17.2804 14.4911 17.2766L21.5005 10.4782L20.0005 10.0501L12.1224 12.3016L7.84582 20.8532L15.5333 26.3454L24.6177 28.6157L29.3755 23.8532ZM37.0693 18.1907L33.1911 10.4266L30.4271 11.8094L34.3099 19.5735L37.0693 18.1907Z" fill="#CF3881"/>
</svg>
