<svg width="72" height="73" viewBox="0 0 72 73" fill="none" xmlns="http://www.w3.org/2000/svg">
<path d="M46.9666 37.4984L42.4326 41.8866H29.5675L25.0214 37.4867L24.7081 37.4866L1.40625 58.3691C1.40625 60.4273 3.06759 62.0958 5.11692 62.0958H66.8829C68.9323 62.0958 70.5936 60.4273 70.5936 58.3691L47.3033 37.4985L46.9666 37.4984Z" fill="#50D8C8"/>
<path d="M72 14.631C72 11.8006 69.7046 9.49805 66.8831 9.49805H5.11692C2.29542 9.49805 0 11.8006 0 14.631C0 14.6355 0.000140625 14.6401 0.000140625 14.6446C0.000140625 14.6491 0 14.6538 0 14.6583V58.3689C0 61.1991 2.29542 63.5018 5.11692 63.5018H66.8831C69.7046 63.5018 72 61.1991 72 58.3689V14.6584C72 14.6539 71.9999 14.6493 71.9999 14.6448C71.9999 14.6401 72 14.6356 72 14.631ZM5.11692 12.3105H66.8831C67.9707 12.3105 68.8846 13.073 69.1255 14.0951L41.8635 40.4803H30.1365L2.87452 14.0951C3.11541 13.0732 4.02933 12.3105 5.11692 12.3105ZM69.1875 58.369C69.1875 59.6486 68.1538 60.6895 66.8831 60.6895H5.11692C3.84623 60.6895 2.8125 59.6486 2.8125 58.369V17.949L28.5895 42.8969C28.8517 43.1507 29.2025 43.2926 29.5675 43.2926H42.4326C42.7977 43.2926 43.1483 43.1507 43.4107 42.8969L69.1875 17.949V58.369Z" fill="#322153"/>
<path d="M46.017 18.8323H25.9824C25.2058 18.8323 24.5762 19.4619 24.5762 20.2385C24.5762 21.0152 25.2058 21.6448 25.9824 21.6448H46.017C46.7937 21.6448 47.4232 21.0152 47.4232 20.2385C47.4232 19.4619 46.7937 18.8323 46.017 18.8323Z" fill="#322153"/>
<path d="M41.7982 24.1101H30.2012C29.4245 24.1101 28.7949 24.7397 28.7949 25.5164C28.7949 26.293 29.4245 26.9226 30.2012 26.9226H41.7982C42.5749 26.9226 43.2045 26.293 43.2045 25.5164C43.2045 24.7397 42.5749 24.1101 41.7982 24.1101Z" fill="#322153"/>
</svg>
