<svg width="72" height="72" viewBox="0 0 72 72" fill="none" xmlns="http://www.w3.org/2000/svg">
<path d="M38.5 56C49.2696 56 58 47.2696 58 36.5C58 25.7304 49.2696 17 38.5 17C27.7304 17 19 25.7304 19 36.5C19 47.2696 27.7304 56 38.5 56Z" fill="#50D8C8"/>
<path d="M55.4714 48.0141C67.2769 36.2085 67.5574 17.1819 56.3267 5.0251L58.982 2.36979C59.4674 1.88441 59.4674 1.09986 58.982 0.614477C58.4966 0.129098 57.7121 0.129098 57.2267 0.614477L53.7161 4.1251C53.2307 4.61048 53.2307 5.39503 53.7161 5.88041C64.8475 17.0131 64.8475 35.1273 53.7161 46.2587C42.5821 57.3902 24.4704 57.3902 13.3377 46.2587C12.8523 45.7734 12.0678 45.7734 11.5824 46.2587L8.0718 49.7694C7.58642 50.2547 7.58642 51.0393 8.0718 51.5247C8.31387 51.7668 8.63166 51.8884 8.94945 51.8884C9.26725 51.8884 9.58504 51.7668 9.82711 51.5247L12.4824 48.8694C18.0848 54.0447 25.1432 56.7757 32.2861 57.0588V69.5172H23.5965C22.91 69.5172 22.3551 70.0721 22.3551 70.7586C22.3551 71.4451 22.91 72 23.5965 72H43.4586C44.145 72 44.6999 71.4451 44.6999 70.7586C44.6999 70.0721 44.145 69.5172 43.4586 69.5172H34.7689V57.0588C42.2966 56.7596 49.7362 53.748 55.4714 48.0141Z" fill="#322153"/>
<path d="M33.5262 52.1379C47.9002 52.1379 59.5952 40.4429 59.5952 26.069C59.5952 11.695 47.9002 0 33.5262 0C19.1523 0 7.45728 11.695 7.45728 26.069C7.45728 40.4429 19.1523 52.1379 33.5262 52.1379ZM10.5843 31.4541C13.3538 33.655 17.7955 35.3892 23.2302 36.365C24.206 41.7997 25.9402 46.2414 28.1411 49.0109C19.4589 46.9713 12.6239 40.1363 10.5843 31.4541ZM33.5262 2.48276C36.4671 2.48276 39.64 7.45945 41.2116 15.3745C38.7897 15.0654 36.2126 14.8966 33.5262 14.8966C30.8399 14.8966 28.2628 15.0654 25.8409 15.3745C27.4124 7.45945 30.5854 2.48276 33.5262 2.48276ZM33.5262 17.3793C36.441 17.3793 39.1559 17.5903 41.6486 17.9466C42.0049 20.4393 42.2159 23.1542 42.2159 26.069C42.2159 28.9837 42.0049 31.6986 41.6486 34.1913C39.1559 34.5476 36.441 34.7586 33.5262 34.7586C30.6115 34.7586 27.8966 34.5476 25.4039 34.1913C25.0476 31.6986 24.8366 28.9837 24.8366 26.069C24.8366 23.1542 25.0476 20.4393 25.4039 17.9466C27.8966 17.5903 30.6115 17.3793 33.5262 17.3793ZM44.2207 18.3836C52.1358 19.9552 57.1124 23.1281 57.1124 26.069C57.1124 29.0098 52.1358 32.1828 44.2207 33.7543C44.5298 31.3324 44.6987 28.7553 44.6987 26.069C44.6987 23.3826 44.5298 20.8055 44.2207 18.3836ZM33.5262 49.6552C30.5854 49.6552 27.4124 44.6785 25.8409 36.7634C28.2628 37.0726 30.8399 37.2414 33.5262 37.2414C36.2126 37.2414 38.7897 37.0726 41.2116 36.7634C39.64 44.6785 36.4671 49.6552 33.5262 49.6552ZM22.8318 33.7543C14.9167 32.1828 9.94003 29.0098 9.94003 26.069C9.94003 23.1281 14.9167 19.9552 22.8318 18.3836C22.5227 20.8055 22.3538 23.3826 22.3538 26.069C22.3538 28.7553 22.5227 31.3324 22.8318 33.7543ZM38.9113 49.0109C41.1123 46.2414 42.8465 41.7997 43.8222 36.365C49.257 35.3892 53.6987 33.655 56.4682 31.4541C54.4286 40.1363 47.5935 46.9713 38.9113 49.0109ZM56.4682 20.6839C53.6987 18.4829 49.257 16.7487 43.8222 15.773C42.8465 10.3382 41.1123 5.89655 38.9113 3.12703C47.5935 5.16662 54.4286 12.0017 56.4682 20.6839ZM28.1411 3.12703C25.9402 5.89655 24.206 10.3382 23.2302 15.773C17.7955 16.7487 13.3538 18.4829 10.5843 20.6839C12.6239 12.0017 19.4589 5.16662 28.1411 3.12703Z" fill="#322153"/>
</svg>
