<svg width="72" height="72" viewBox="0 0 72 72" fill="none" xmlns="http://www.w3.org/2000/svg">
<g clip-path="url(#clip0_185_290)">
<path d="M15.2354 43.5352C12.3964 32.94 14.3901 23.1989 19.687 21.78C9.09186 24.619 2.80304 35.5097 5.64207 46.1061C7.5811 42.7469 11.8763 41.5961 15.2354 43.5352Z" fill="#50D8C8"/>
<path d="M24.8276 40.9655C26.7666 37.6063 31.0618 36.4556 34.4197 38.3959C31.5807 27.8007 24.984 20.3611 19.6858 21.7812L24.8276 40.9655Z" fill="#50D8C8"/>
<path d="M70.7586 9.93103H66.9091C66.7477 9.14028 66.4324 8.40538 66.0004 7.7549L68.7277 5.02759C69.2131 4.54221 69.2131 3.75765 68.7277 3.27228C68.2423 2.7869 67.4578 2.7869 66.9724 3.27228L64.2451 5.99959C63.5946 5.56759 62.8597 5.25228 62.0689 5.0909V1.24138C62.0689 0.554897 61.514 0 60.8276 0C60.1411 0 59.5862 0.554897 59.5862 1.24138V5.0909C58.7954 5.25228 58.0605 5.56759 57.41 5.99959L54.6827 3.27228C54.1974 2.7869 53.4128 2.7869 52.9274 3.27228C52.442 3.75765 52.442 4.54221 52.9274 5.02759L55.6547 7.7549C55.2227 8.40538 54.9074 9.14028 54.746 9.93103H50.8965C50.21 9.93103 49.6552 10.4859 49.6552 11.1724C49.6552 11.8589 50.21 12.4138 50.8965 12.4138H54.746C54.9074 13.2046 55.2227 13.9394 55.6547 14.5899L52.9274 17.3172C52.442 17.8026 52.442 18.5872 52.9274 19.0726C53.1695 19.3146 53.4873 19.4363 53.8051 19.4363C54.1229 19.4363 54.4407 19.3146 54.6827 19.0726L57.41 16.3452C58.0605 16.7772 58.7954 17.0926 59.5862 17.2539V21.1034C59.5862 21.7899 60.1411 22.3448 60.8276 22.3448C61.514 22.3448 62.0689 21.7899 62.0689 21.1034V17.2539C62.8597 17.0926 63.5946 16.7772 64.2451 16.3452L66.9724 19.0726C67.2145 19.3146 67.5323 19.4363 67.85 19.4363C68.1678 19.4363 68.4856 19.3146 68.7277 19.0726C69.2131 18.5872 69.2131 17.8026 68.7277 17.3172L66.0004 14.5899C66.4324 13.9394 66.7477 13.2046 66.9091 12.4138H70.7586C71.4451 12.4138 72 11.8589 72 11.1724C72 10.4859 71.4451 9.93103 70.7586 9.93103ZM60.8276 14.8966C58.7743 14.8966 57.1034 13.2257 57.1034 11.1724C57.1034 9.11917 58.7743 7.44828 60.8276 7.44828C62.8808 7.44828 64.5517 9.11917 64.5517 11.1724C64.5517 13.2257 62.8808 14.8966 60.8276 14.8966Z" fill="#322153"/>
<path d="M70.7586 69.5172H66.4721C64.8074 67.1673 57.6658 59.5862 35.9119 59.5862C34.6779 59.5862 33.5172 59.6172 32.2759 59.6632C32.2759 59.6619 32.2759 59.6607 32.2759 59.6607L26.0876 36.2383C26.8659 35.1112 28.0303 34.2857 29.3673 33.9269C30.8582 33.5272 32.4385 33.7308 33.7767 34.5054C33.7941 34.5153 33.8251 34.5178 33.8437 34.5277C33.8959 34.555 33.9579 34.5737 34.0138 34.5923C34.0746 34.6134 34.1379 34.6345 34.2 34.6457C34.2186 34.6494 34.236 34.6581 34.2546 34.6606C34.3092 34.668 34.3639 34.6717 34.4172 34.6717C34.4321 34.6717 34.4458 34.6668 34.4594 34.6655C34.5066 34.6643 34.5526 34.6544 34.5997 34.6469C34.6668 34.637 34.7326 34.6258 34.7971 34.6047C34.8418 34.5898 34.884 34.5712 34.9274 34.5513C34.992 34.5215 35.0528 34.488 35.1124 34.4483C35.1323 34.4346 35.1546 34.4284 35.1732 34.4148C35.1919 34.4011 35.203 34.3812 35.2192 34.3664C35.2738 34.3204 35.3222 34.2683 35.3681 34.2124C35.3979 34.1764 35.4277 34.1417 35.4525 34.1032C35.465 34.0846 35.4811 34.0709 35.4923 34.051C36.2632 32.7141 37.5108 31.757 39.0017 31.3572C40.4913 30.96 42.0505 31.1624 43.3887 31.9357C43.8232 32.1852 44.3681 32.1505 44.7641 31.8451C45.1626 31.5397 45.3377 31.0246 45.2073 30.5392C43.7487 25.0932 40.2567 20.5424 35.3743 17.7244C30.8532 15.1138 25.6419 14.3032 20.5746 15.3534L19.5952 11.6988C19.4164 11.0359 18.7374 10.6424 18.0745 10.8211C17.4116 10.9986 17.0181 11.6789 17.1968 12.3418L18.1763 15.9964C13.2617 17.6226 9.15641 20.9284 6.54579 25.4495C3.72662 30.3319 2.97807 36.0186 4.43793 41.4621C4.56703 41.9475 4.97793 42.3062 5.47448 42.3708C5.5291 42.3782 5.58372 42.3819 5.6371 42.3819C6.07655 42.3819 6.48869 42.1486 6.71214 41.7612C8.30483 39.0004 11.849 38.0532 14.6086 39.6459C14.6259 39.6559 14.647 39.6583 14.6644 39.6683C14.7166 39.6956 14.7724 39.7142 14.8295 39.7328C14.8903 39.7539 14.9499 39.775 15.0132 39.7862C15.0319 39.7899 15.048 39.7986 15.0666 39.8011C15.1212 39.8086 15.1759 39.8123 15.2292 39.8123C15.2441 39.8123 15.2566 39.8073 15.2714 39.8073C15.3186 39.8061 15.3646 39.7961 15.4105 39.7887C15.4775 39.7788 15.5446 39.7676 15.6091 39.7465C15.6538 39.7316 15.6948 39.713 15.7382 39.6931C15.804 39.6633 15.8648 39.6298 15.9244 39.5888C15.943 39.5752 15.9666 39.5702 15.984 39.5553C16.0014 39.5417 16.0126 39.523 16.0287 39.5081C16.0833 39.461 16.133 39.4088 16.1801 39.3517C16.2099 39.3157 16.2385 39.2822 16.2646 39.2425C16.277 39.2239 16.2931 39.2102 16.3043 39.1903C17.8175 36.5686 21.0823 35.6077 23.7737 36.8826L29.916 59.8035C12.8458 61.0473 7.01255 67.3895 5.5229 69.5172H1.24138C0.554897 69.5172 0 70.0721 0 70.7586C0 71.4451 0.554897 72 1.24138 72H6.2069H65.7931H70.7586C71.4451 72 72 71.4451 72 70.7586C72 70.0721 71.4451 69.5172 70.7586 69.5172ZM28.7702 31.5286C27.5003 31.8687 26.3545 32.4919 25.4011 33.3447L23.4261 25.9734L21.2673 17.9156C21.343 17.9206 21.4175 17.9181 21.4945 17.9268C21.5826 17.9367 21.672 17.9479 21.7614 17.964C21.9488 17.9963 22.1388 18.0422 22.3299 18.0981C22.4081 18.1204 22.4863 18.1378 22.5646 18.1639C22.8327 18.2532 23.1046 18.3612 23.3789 18.4941C23.4112 18.5102 23.4434 18.5313 23.4757 18.5475C23.719 18.6691 23.9636 18.8081 24.2081 18.9633C24.3012 19.0229 24.3956 19.0899 24.4899 19.1532C24.6786 19.2811 24.8673 19.4164 25.056 19.5629C25.1578 19.6424 25.2608 19.7243 25.3626 19.8087C25.555 19.9676 25.7474 20.1389 25.9399 20.3177C26.0305 20.4021 26.1211 20.4815 26.2105 20.5697C26.4898 20.8428 26.7691 21.1295 27.0447 21.4411C27.3526 21.7887 27.653 22.1574 27.9472 22.541C28.044 22.6664 28.1371 22.8004 28.2327 22.9308C28.4288 23.1964 28.6225 23.467 28.8124 23.7488C28.9192 23.9077 29.0247 24.0716 29.129 24.2342C29.3028 24.5048 29.4728 24.7804 29.6392 25.0635C29.7422 25.2372 29.844 25.411 29.9433 25.5886C30.1121 25.889 30.276 26.1968 30.4374 26.5084C30.5243 26.676 30.6124 26.8399 30.6981 27.0112C30.9004 27.4196 31.0953 27.8392 31.284 28.265C31.32 28.3457 31.3585 28.4226 31.3945 28.5046C31.6142 29.011 31.824 29.5312 32.0251 30.0588C32.0897 30.2276 32.148 30.4026 32.2101 30.5739C32.3094 30.847 32.405 31.1239 32.4981 31.4019C31.2778 31.1574 30.0079 31.1959 28.7702 31.5286ZM34.1379 19.8745C37.7168 21.9401 40.4479 25.061 42.0083 28.8112C40.8103 28.5902 39.5714 28.6324 38.3623 28.9589C37.0663 29.3052 35.9007 29.947 34.9361 30.8259C34.7834 30.3629 34.6183 29.9086 34.4508 29.4567C34.4234 29.3822 34.3986 29.304 34.3701 29.2295C34.1516 28.651 33.9194 28.085 33.6774 27.5301C33.6041 27.3612 33.5247 27.1986 33.4502 27.0323C33.2764 26.6487 33.1001 26.2676 32.9164 25.8964C32.8196 25.7003 32.7178 25.5091 32.6185 25.3179C32.4459 24.9852 32.2697 24.6588 32.0897 24.3385C31.9804 24.1448 31.8699 23.9537 31.757 23.765C31.5732 23.4546 31.3846 23.1517 31.1921 22.8538C31.0792 22.6775 30.9674 22.5012 30.852 22.3312C30.641 22.0184 30.4237 21.7167 30.204 21.42C30.1022 21.2822 30.0029 21.1395 29.8999 21.0054C29.5746 20.5833 29.2432 20.1761 28.903 19.7938C28.5033 19.3419 28.0986 18.9273 27.6902 18.5437C27.5437 18.4059 27.396 18.293 27.2483 18.1639C26.9851 17.933 26.7219 17.6984 26.4563 17.4972C26.4314 17.4786 26.4079 17.4538 26.383 17.4352C29.083 17.6599 31.7234 18.4792 34.1379 19.8745ZM6.35462 38.3686C5.82828 34.339 6.63517 30.2686 8.70207 26.6897C10.0961 24.2739 11.9719 22.2443 14.1977 20.7C14.1865 20.7273 14.1778 20.7584 14.1666 20.7857C14.0313 21.1072 13.9159 21.4572 13.7979 21.8048C13.7408 21.9749 13.6738 22.1326 13.6204 22.3088C13.459 22.8464 13.315 23.4099 13.1934 24.0021C13.0916 24.5023 13.0084 25.02 12.9377 25.5451C12.9141 25.7214 12.8992 25.9039 12.8793 26.0826C12.8396 26.4389 12.8023 26.7977 12.7763 27.1651C12.7614 27.3799 12.7514 27.5984 12.7415 27.8168C12.7254 28.1595 12.7142 28.5046 12.7092 28.8546C12.7068 29.0855 12.7055 29.3164 12.708 29.5498C12.7117 29.9036 12.7229 30.2599 12.739 30.6199C12.749 30.8495 12.7577 31.0779 12.7726 31.3088C12.7974 31.7048 12.8334 32.1033 12.8731 32.5043C12.893 32.7041 12.9066 32.9003 12.9302 33.1014C12.9985 33.6997 13.0792 34.3006 13.1785 34.9076C13.1921 34.9883 13.2095 35.0702 13.2232 35.1521C13.3039 35.6264 13.3883 36.1018 13.4876 36.5785C10.9651 36.0273 8.31228 36.7001 6.35462 38.3686ZM15.8822 35.856C15.8214 35.5568 15.7643 35.2577 15.7109 34.961C15.6811 34.7946 15.6476 34.627 15.6215 34.4619C15.5309 33.8996 15.4514 33.3422 15.3881 32.7886C15.3782 32.7066 15.3745 32.6272 15.3658 32.5452C15.3161 32.0748 15.2739 31.6068 15.2454 31.145C15.2342 30.96 15.228 30.78 15.2206 30.5963C15.2044 30.24 15.192 29.885 15.1883 29.5349C15.1858 29.335 15.1883 29.1377 15.1895 28.9403C15.1932 28.6076 15.2019 28.2799 15.2181 27.9559C15.2268 27.7647 15.2354 27.5735 15.2491 27.3848C15.2727 27.0435 15.3062 26.7095 15.3434 26.3793C15.3608 26.2217 15.3745 26.0615 15.3956 25.9064C15.4589 25.4272 15.5346 24.9555 15.6277 24.5011C15.7109 24.0927 15.809 23.7054 15.9145 23.3292C15.9492 23.2076 15.9877 23.0934 16.0237 22.9742C16.1007 22.7235 16.1826 22.4789 16.2695 22.2443C16.3154 22.1201 16.3639 21.9985 16.4123 21.8793C16.5029 21.6584 16.5985 21.4461 16.6966 21.2425C16.7462 21.1395 16.7946 21.0339 16.8468 20.9346C16.9796 20.6826 17.1186 20.4455 17.2651 20.2233C17.2887 20.1886 17.3086 20.1476 17.3321 20.1128C17.5022 19.8621 17.6822 19.6361 17.8684 19.4251C17.928 19.3568 17.9913 19.2997 18.0534 19.2352C18.1862 19.0986 18.3215 18.9695 18.4606 18.8528C18.5363 18.7895 18.6132 18.7312 18.6914 18.6741C18.7498 18.6306 18.8119 18.5971 18.8714 18.5574L23.0077 33.9915C20.4778 33.4676 17.8274 34.1615 15.8822 35.856ZM8.82621 69.5172C11.6454 66.8235 19.0279 62.069 36 62.069C52.9001 62.069 60.3137 66.8235 63.1552 69.5172H8.82621Z" fill="#322153"/>
</g>
<defs>
<clipPath id="clip0_185_290">
<rect width="72" height="72" fill="white"/>
</clipPath>
</defs>
</svg>
