<svg width="72" height="73" viewBox="0 0 72 73" fill="none" xmlns="http://www.w3.org/2000/svg">
<g clip-path="url(#clip0_769_3457)">
<path fill-rule="evenodd" clip-rule="evenodd" d="M35.316 59.9616C26.9295 59.9616 28.9036 48.3396 28.9039 42.8283C28.9042 39.3479 25.8431 36.1955 22.3626 36.1955C18.011 36.1955 13.6595 36.1901 9.30769 36.1901C6.00806 36.1901 3.4148 35.493 1.49512 34.0002C1.4362 34.8259 1.40625 35.6596 1.40625 36.5003C1.40625 55.6059 16.8944 71.094 36 71.094C39.057 71.094 42.0214 70.6975 44.8446 69.953C45.0447 65.36 44.811 59.9616 39.5347 59.9616H35.316Z" fill="#50D8C8"/>
<path fill-rule="evenodd" clip-rule="evenodd" d="M39.9521 17.6645C43.1259 17.6645 45.9724 19.7258 46.329 23.7107V30.0388C46.329 33.5191 49.4404 36.5189 52.9207 36.5189C58.8236 36.5189 64.698 36.5063 70.5935 36.5018C70.5935 36.5012 70.5935 36.5008 70.5935 36.5002C70.5935 30.5694 69.1003 24.9874 66.4701 20.1093C64.7484 22.3932 62.8325 24.4921 61.4528 26.0747C58.291 22.448 52.3122 16.1089 52.3122 11.047C52.3122 9.44357 52.7255 7.93692 53.4507 6.62685C48.3276 3.62746 42.365 1.90649 35.9997 1.90649C33.7085 1.90649 31.4693 2.12924 29.3027 2.55421L29.3205 11.1602C29.3375 14.7359 32.1242 17.6645 35.7335 17.6645H39.9521Z" fill="#50D8C8"/>
<path fill-rule="evenodd" clip-rule="evenodd" d="M60.5748 56.2314C57.0852 56.067 54.6446 55.3059 53.0437 56.3984C51.2324 57.6344 50.6851 60.8413 54.4039 62.544L56.4818 63.5017H57.6278C60.1815 61.4536 62.4384 59.0508 64.3238 56.3679H63.4571L60.5748 56.2314Z" fill="#50D8C8"/>
<path fill-rule="evenodd" clip-rule="evenodd" d="M61.4531 1.90625C56.4048 1.90625 52.3125 5.99858 52.3125 11.0469C52.3125 16.1088 58.2913 22.4479 61.4531 26.0746C64.6149 22.4479 70.5938 16.1088 70.5938 11.0469C70.5938 5.99858 66.5013 1.90625 61.4531 1.90625Z" stroke="#322153" stroke-width="3" stroke-miterlimit="2.6131" stroke-linecap="round" stroke-linejoin="round"/>
<path d="M63.6368 13.4698C64.9765 12.2633 65.0845 10.1991 63.878 8.8594C62.6715 7.51965 60.6074 7.41164 59.2676 8.61815C57.9279 9.82466 57.8199 11.8888 59.0264 13.2286C60.2329 14.5683 62.297 14.6763 63.6368 13.4698Z" stroke="#322153" stroke-width="3" stroke-miterlimit="2.6131" stroke-linecap="round" stroke-linejoin="round"/>
<path d="M66.6394 20.4393C69.2369 25.3944 70.5938 30.9056 70.5938 36.5002C70.5938 55.6058 55.1056 71.094 36 71.094C16.8944 71.094 1.40625 55.6058 1.40625 36.5002C1.40625 17.3947 16.8944 1.90649 36 1.90649C41.9486 1.90649 47.7966 3.44029 52.9793 6.36009" stroke="#322153" stroke-width="3" stroke-miterlimit="2.6131" stroke-linecap="round" stroke-linejoin="round"/>
</g>
<defs>
<clipPath id="clip0_769_3457">
<rect width="72" height="72" fill="white" transform="translate(0 0.5)"/>
</clipPath>
</defs>
</svg>
