<svg width="72" height="73" viewBox="0 0 72 73" fill="none" xmlns="http://www.w3.org/2000/svg">
<g clip-path="url(#clip0_769_3339)">
<path d="M65.5312 70.9532H17.9297C17.9297 70.9532 23.6348 48.4532 60.6094 57.7374L60.6108 57.7358C63.72 61.5214 65.5312 66.0664 65.5312 70.9532Z" fill="#50D8C8"/>
<path d="M70.5938 69.5469H66.8905C66.5895 65.0431 64.834 60.6019 61.5677 56.6885L54.4417 33.9696C54.2575 33.3828 53.7138 32.9842 53.1 32.9842C52.4752 32.9842 51.9248 33.3965 51.7496 33.9973L47.8035 47.5464C44.4949 46.427 41.0091 45.7978 37.4061 45.668C37.4061 42.8714 37.4061 28.8878 37.4061 26.0938C37.4061 25.5751 37.1206 25.0987 36.6635 24.854C36.2062 24.6089 35.6512 24.6362 35.2198 24.9237L26.7823 30.5487C25.9494 31.1039 25.9469 32.3319 26.7823 32.8889L34.5938 38.0964V45.6673C28.8447 45.8774 23.334 47.3733 18.5774 50.027C15.1221 51.9547 12.2137 54.4024 9.98438 57.234V48.4531C10.4178 48.4531 15.9089 48.4531 15.612 48.4531C16.6032 48.4531 17.2785 47.4553 16.9241 46.5396L9.92039 24.1275C9.73687 23.5404 9.19322 23.1406 8.57812 23.1406C7.96303 23.1406 7.41938 23.5404 7.23586 24.1275L0.204609 46.6275C0.0711563 47.0545 0.148922 47.5195 0.413859 47.8799C0.678797 48.2402 1.09941 48.4531 1.54688 48.4531H7.17188V61.7454C5.98036 64.2429 5.28919 66.8597 5.11088 69.5469H1.40625C0.629578 69.5469 0 70.1766 0 70.9531C0 71.7297 0.629578 72.3594 1.40625 72.3594H70.5938C71.3703 72.3594 72 71.7297 72 70.9531C72 70.1766 71.3703 69.5469 70.5938 69.5469ZM8.57812 29.2615L13.6966 45.6406H3.45966L8.57812 29.2615ZM53.1498 39.2485L57.3456 52.6256C55.2857 51.0197 52.9601 49.6496 50.4381 48.56L53.1498 39.2485ZM34.5938 28.7215V34.7162L30.0975 31.7188L34.5938 28.7215ZM9.83841 62.6883C14.12 54.0407 24.3892 48.4531 36 48.4531C45.0253 48.4531 53.9911 51.9364 59.524 58.6282C62.2119 61.9008 63.7673 65.65 64.0695 69.5469H7.93055C8.11223 67.1856 8.75053 64.8843 9.83841 62.6883Z" fill="#322153"/>
<path d="M54.2812 23.1406H66.9375C69.6514 23.1406 71.8594 20.9327 71.8594 18.2188C71.8594 15.6598 69.9238 13.6055 67.5065 13.3291C66.8614 10.0684 63.9869 7.67188 60.6094 7.67188C57.2318 7.67188 54.3573 10.0681 53.7123 13.3291C51.2958 13.6055 49.3594 15.6588 49.3594 18.2188C49.3594 20.9398 51.5596 23.1406 54.2812 23.1406ZM54.2812 16.1094C55.3714 16.1094 56.2909 15.2877 56.4202 14.1984C56.672 12.081 58.473 10.4844 60.6094 10.4844C62.7458 10.4844 64.5467 12.081 64.7985 14.1981C64.9278 15.2877 65.8474 16.1094 66.9375 16.1094C68.1076 16.1094 69.0469 17.0568 69.0469 18.2188C69.0469 19.3819 68.1007 20.3281 66.9375 20.3281H54.2812C53.1149 20.3281 52.1719 19.3857 52.1719 18.2188C52.1719 17.0554 53.1122 16.1094 54.2812 16.1094Z" fill="#322153"/>
<path d="M15.6094 16.1094H28.2656C30.9795 16.1094 33.1875 13.9014 33.1875 11.1875C33.1875 8.62855 31.2519 6.5743 28.8346 6.29783C28.1895 3.03716 25.315 0.640625 21.9375 0.640625C18.56 0.640625 15.6855 3.03688 15.0404 6.29783C12.6239 6.5743 10.6875 8.62756 10.6875 11.1875C10.6875 13.9086 12.8877 16.1094 15.6094 16.1094ZM15.6094 9.07812C16.6995 9.07812 17.619 8.25645 17.7483 7.16717C18.0001 5.04978 19.8011 3.45312 21.9375 3.45312C24.0739 3.45312 25.8749 5.04978 26.1266 7.16689C26.256 8.25645 27.1755 9.07812 28.2656 9.07812C29.4358 9.07812 30.375 10.0255 30.375 11.1875C30.375 12.3506 29.4287 13.2969 28.2656 13.2969H15.6094C14.443 13.2969 13.5 12.3544 13.5 11.1875C13.5 10.0241 14.4404 9.07812 15.6094 9.07812Z" fill="#322153"/>
</g>
<defs>
<clipPath id="clip0_769_3339">
<rect width="72" height="72" fill="white" transform="translate(0 0.5)"/>
</clipPath>
</defs>
</svg>
