<svg width="72" height="72" viewBox="0 0 72 72" fill="none" xmlns="http://www.w3.org/2000/svg">
<path d="M53.141 21.2762V21.2183C53.112 19.722 53.0852 18.3084 53.0852 16.9507C53.0846 15.9598 52.6908 15.0098 51.9902 14.3091C51.2896 13.6085 50.3395 13.2147 49.3487 13.2141C45.8559 13.3849 42.3652 12.8385 39.0917 11.6087C35.8181 10.3789 32.8311 8.49175 30.3148 6.06351C29.6194 5.3819 28.6845 5.00012 27.7108 5.00012C26.7371 5.00012 25.8022 5.3819 25.1068 6.06351C22.5906 8.49205 19.6037 10.3794 16.3301 11.6092C13.0565 12.8391 9.56567 13.3853 6.07288 13.2141C5.08278 13.2152 4.13354 13.609 3.43343 14.3091C2.73332 15.0092 2.33952 15.9585 2.33843 16.9486C2.33843 18.3374 2.31157 19.7654 2.28264 21.2762C2.1483 28.3317 1.9809 37.1129 4.92589 45.082C6.47504 49.3555 8.96714 53.225 12.2171 56.4031C16.2973 60.2151 21.1654 63.0838 26.477 64.8061C26.8704 64.943 27.2839 65.0129 27.7004 65.0128C28.1163 65.0129 28.5292 64.943 28.9218 64.8061C34.2334 63.0837 39.1015 60.215 43.1818 56.4031C46.4418 53.2309 48.9453 49.3649 50.506 45.0923C53.453 37.1212 53.2856 28.34 53.1513 21.2844L53.141 21.2762ZM47.1993 43.8647C44.0994 52.2698 37.7423 58.0337 27.7728 61.485C27.751 61.4932 27.7279 61.4974 27.7046 61.4974C27.6799 61.4973 27.6555 61.4932 27.6322 61.485C17.6751 58.0337 11.3243 52.2698 8.216 43.8647C5.50042 36.5157 5.65335 28.4557 5.78975 21.3382C5.81868 19.8109 5.84555 18.3663 5.84555 16.9445C5.84555 16.8864 5.86863 16.8306 5.90971 16.7895C5.95079 16.7485 6.00651 16.7254 6.06461 16.7254C10.0147 16.9108 13.9609 16.284 17.6592 14.8839C21.3575 13.4837 24.7292 11.3398 27.5661 8.58483C27.6071 8.54501 27.6619 8.52277 27.719 8.52283C27.7761 8.52298 27.8309 8.5452 27.872 8.58483C30.7073 11.34 34.0775 13.4845 37.7743 14.8857C41.4711 16.2869 45.416 16.9152 49.3652 16.7316C49.394 16.7316 49.4225 16.7373 49.449 16.7483C49.4756 16.7593 49.4998 16.7754 49.5201 16.7957C49.5404 16.8161 49.5566 16.8402 49.5676 16.8668C49.5786 16.8934 49.5843 16.9219 49.5843 16.9507C49.5843 18.3436 49.6111 19.7737 49.6401 21.2906V21.3485C49.6711 22.9357 49.7021 24.5704 49.7021 26.2341C49.9143 32.2126 49.067 38.1815 47.1993 43.8647Z" fill="#322153"/>
<path d="M37.4645 24.2791C37.5833 24.1168 37.7353 23.9818 37.9104 23.883C38.0855 23.7841 38.2797 23.7238 38.48 23.706C38.6803 23.6882 38.8821 23.7133 39.072 23.7797C39.2618 23.8461 39.4352 23.9523 39.5807 24.091C39.8871 24.3893 40.0737 24.7894 40.1053 25.2159C40.1369 25.6423 40.0113 26.0655 39.7523 26.4057L26.9886 42.8315C26.8679 42.9958 26.713 43.1321 26.5347 43.231C26.3564 43.3299 26.1589 43.3891 25.9556 43.4046C25.7523 43.4201 25.548 43.3915 25.3568 43.3208C25.1655 43.2501 24.9918 43.1388 24.8476 42.9948L18.0896 36.4249C17.7895 36.1201 17.6113 35.716 17.5884 35.2889C17.5656 34.8618 17.6997 34.4411 17.9656 34.1061C18.0883 33.9467 18.2436 33.8154 18.4211 33.7208C18.5986 33.6263 18.7942 33.5707 18.9949 33.5578C19.1956 33.5449 19.3967 33.5749 19.5849 33.646C19.773 33.717 19.9439 33.8273 20.086 33.9697L25.6949 39.4236L37.4645 24.2791Z" fill="#322153"/>
<path d="M69.7781 45.8221C69.7781 45.7787 69.7781 45.7374 69.7781 45.694C69.8471 43.3049 68.965 40.9861 67.3255 39.247C65.686 37.5079 63.4231 36.4907 61.0341 36.4188C59.1975 36.4815 57.4163 37.0639 55.8974 38.0985C54.3785 39.133 53.1843 40.5772 52.4534 42.2633C51.7225 40.5772 50.5282 39.133 49.0093 38.0985C47.4904 37.0639 45.7093 36.4815 43.8726 36.4188C41.4847 36.4907 39.2229 37.507 37.5835 39.2448C35.9442 40.9825 35.0613 43.2997 35.1286 45.6878C35.1286 45.7374 35.1286 45.787 35.1286 45.8366C35.1441 46.8503 35.3191 47.8553 35.6473 48.8146C35.6804 48.9118 35.7072 49.0213 35.7424 49.106C37.5032 54.8926 44.6497 61.6093 49.0434 64.9242C49.8091 65.5143 50.6074 66.0607 51.4345 66.561C51.6349 66.6814 51.8419 66.7905 52.0545 66.8875C52.1708 66.961 52.3055 67 52.443 67C52.5805 67 52.7153 66.961 52.8316 66.8875C53.0442 66.7905 53.2512 66.6814 53.4516 66.561C54.2787 66.0607 55.077 65.5142 55.8427 64.9242C60.2364 61.6176 67.3829 54.9009 69.1437 49.106C69.1788 49.0109 69.2057 48.9097 69.2388 48.8146C69.5757 47.8519 69.7577 46.8419 69.7781 45.8221Z" fill="#50D8C8" stroke="#322153" stroke-width="3"/>
</svg>
