<svg width="72" height="72" viewBox="0 0 72 72" fill="none" xmlns="http://www.w3.org/2000/svg">
<path d="M22.6481 62.0562C21.2741 61.465 19.9439 60.7769 18.6674 59.9972C18.1932 59.7102 17.8438 59.4731 17.5942 59.3109L17.3072 59.1112C16.948 58.8351 16.4939 58.7129 16.0447 58.7714C15.5954 58.8299 15.1878 59.0643 14.9113 59.4231C14.6344 59.7771 14.5058 60.2246 14.5523 60.6715C14.5989 61.1184 14.817 61.5298 15.1609 61.8191C21.6248 67.1974 27.5273 70.2173 33.2051 71.0658C34.3575 71.2399 35.5212 71.3275 36.6867 71.3279C38.3642 71.3264 40.037 71.1508 41.6782 70.8038C44.0707 70.2839 46.3947 69.4883 48.6039 68.4328L49.9641 70.4045C50.1433 70.6609 50.3885 70.8641 50.6737 70.9925C50.959 71.121 51.2736 71.1699 51.5844 71.1341C51.8952 71.0983 52.1905 70.9791 52.4391 70.7891C52.6877 70.5992 52.8802 70.3455 52.9964 70.055L56.74 60.5213C56.8377 60.275 56.8773 60.0096 56.8556 59.7455C56.834 59.4815 56.7517 59.226 56.6152 58.9989C56.4825 58.7755 56.3016 58.5846 56.0857 58.4399C55.8698 58.2953 55.6244 58.2006 55.3673 58.1628L45.1223 57.0023C44.8015 56.9644 44.4766 57.018 44.185 57.1572C43.8935 57.2963 43.6474 57.5151 43.4751 57.7884C43.3102 58.0636 43.223 58.3785 43.223 58.6994C43.223 59.0203 43.3102 59.3351 43.4751 59.6103L44.5483 61.3948C41.8487 63.0328 38.8175 64.0474 35.6759 64.3647C31.2077 64.7144 26.7241 63.9199 22.6481 62.0562ZM46.5823 62.6801C46.8252 62.517 46.9966 62.2673 47.0615 61.982C47.1265 61.6968 47.0801 61.3974 46.9318 61.1452L45.8585 59.3608L54.2817 60.3092L51.162 68.2207L49.8392 66.2989C49.6825 66.0739 49.4503 65.9125 49.1848 65.8438C48.9193 65.7752 48.638 65.8038 48.3917 65.9246C46.091 67.0977 43.6506 67.9741 41.1291 68.5327C38.6186 69.0716 36.0313 69.152 33.4921 68.7698C29.7264 68.12 26.1311 66.715 22.9226 64.6393C26.9886 66.2793 31.3806 66.95 35.7508 66.5984C39.617 66.2031 43.3254 64.857 46.5449 62.6801H46.5823Z" fill="#322153"/>
<path d="M52.4841 12.0038L53.5448 12.6902L53.8193 12.8898C53.9971 13.0308 54.201 13.1353 54.4192 13.1975C54.6374 13.2596 54.8656 13.2782 55.091 13.2521C55.3164 13.2261 55.5345 13.1558 55.7327 13.0455C55.931 12.9352 56.1055 12.7869 56.2464 12.6091C56.3874 12.4313 56.4919 12.2274 56.5541 12.0092C56.6162 11.791 56.6348 11.5628 56.6087 11.3374C56.5827 11.112 56.5125 10.8939 56.4021 10.6957C56.2918 10.4974 56.1435 10.3229 55.9657 10.182C49.5017 4.8161 43.5992 1.78373 37.9214 0.935174C35.1168 0.511588 32.2587 0.600404 29.4858 1.19725C27.1227 1.74514 24.8289 2.55721 22.6474 3.61813L21.2872 1.64647C21.108 1.39003 20.8629 1.18685 20.5776 1.05841C20.2924 0.929962 19.9777 0.881084 19.6669 0.916894C19.3561 0.952704 19.0608 1.07189 18.8122 1.26184C18.5636 1.4518 18.3711 1.70544 18.2549 1.99591L14.5113 11.5421C14.4136 11.7892 14.3744 12.0556 14.3967 12.3203C14.4191 12.5851 14.5025 12.8411 14.6402 13.0683C14.778 13.2955 14.9665 13.4877 15.1909 13.6299C15.4153 13.7721 15.6696 13.8605 15.9339 13.8881L26.1665 15.0486H26.3911C26.6802 15.0488 26.9646 14.9756 27.2178 14.836C27.4709 14.6963 27.6845 14.4947 27.8386 14.25C28.0062 13.9758 28.0949 13.6605 28.0949 13.339C28.0949 13.0176 28.0062 12.7024 27.8386 12.4281L26.7654 10.6437C29.465 9.00571 32.4961 7.99105 35.6378 7.67372C40.0527 7.34438 44.4799 8.12515 48.5158 9.94486C49.8851 10.5376 51.2111 11.2256 52.4841 12.0038ZM35.3883 5.40258C31.5106 5.79848 27.7903 7.14432 24.5567 9.32093C24.316 9.48598 24.147 9.73658 24.0844 10.0217C24.0218 10.3068 24.0703 10.6051 24.2198 10.8558L25.2804 12.6402L16.8573 11.6918L19.977 3.78036L21.2997 5.70206C21.4548 5.92914 21.687 6.09225 21.9532 6.1611C22.2194 6.22995 22.5016 6.19984 22.7473 6.07641C25.0524 4.90306 27.4968 4.02676 30.0223 3.46839C32.5294 2.93581 35.1116 2.85552 37.6469 3.2313C41.4142 3.88936 45.0119 5.29368 48.2289 7.36175C44.1566 5.72864 39.7622 5.05815 35.3883 5.40258Z" fill="#322153"/>
<circle cx="15.378" cy="29.8131" r="9.2803" fill="#01AA90"/>
<path d="M27.0381 52.1982C27.0381 51.8613 27.2503 43.85 22.2089 39.2453C21.9927 39.0446 21.7124 38.9269 21.4177 38.9132C21.123 38.8995 20.8329 38.9906 20.5991 39.1704C20.5367 39.1704 14.9712 43.4007 9.7925 39.1704C9.56735 38.9804 9.28221 38.8762 8.98759 38.8762C8.69297 38.8762 8.40783 38.9804 8.18269 39.1704C7.97055 39.3451 3.19124 43.6628 3.00406 52.1109C3.00145 52.2772 3.03209 52.4424 3.09424 52.5967C3.15638 52.751 3.24876 52.8913 3.36592 53.0094C3.48149 53.1273 3.61933 53.2211 3.77141 53.2853C3.9235 53.3496 4.08683 53.3831 4.25193 53.3837H25.7778C26.1003 53.3874 26.4117 53.2659 26.6467 53.0449C26.8817 52.8239 27.022 52.5204 27.0381 52.1982ZM5.57468 50.9504C5.76961 47.6163 7.01942 44.4306 9.14358 41.8534C10.9451 42.9992 13.0358 43.6077 15.1708 43.6077C17.3058 43.6077 19.3966 42.9992 21.1981 41.8534C23.6938 44.736 24.3551 48.9288 24.4799 50.9629L5.57468 50.9504Z" fill="#322153"/>
<circle cx="56.624" cy="29.8131" r="9.2803" fill="#01AA90"/>
<path d="M64.1851 39.245C63.9681 39.041 63.6854 38.9214 63.3879 38.9076C63.0904 38.8939 62.7977 38.987 62.5629 39.1702C62.5629 39.1702 56.9475 43.4005 51.7688 39.1702C51.5428 38.9768 51.2551 38.8706 50.9577 38.8706C50.6603 38.8706 50.3726 38.9768 50.1465 39.1702C48.4633 40.8723 47.1379 42.8942 46.2485 45.1167C45.359 47.3392 44.9237 49.7172 44.9679 52.1106C44.9679 52.4416 45.0994 52.7589 45.3334 52.993C45.5674 53.227 45.8848 53.3585 46.2158 53.3585H67.7416C68.0726 53.3585 68.3899 53.227 68.624 52.993C68.858 52.7589 68.9895 52.4416 68.9895 52.1106C69.0144 51.861 69.2141 43.8497 64.1851 39.245ZM47.6009 50.9127C47.8077 47.5812 49.0561 44.399 51.1698 41.8156C52.9727 42.964 55.0658 43.574 57.2033 43.574C59.3408 43.574 61.4339 42.964 63.2368 41.8156C65.7325 44.6982 66.3814 48.8911 66.5186 50.9251L47.6009 50.9127Z" fill="#322153"/>
</svg>
