<svg width="40" height="40" viewBox="0 0 40 40" fill="none" xmlns="http://www.w3.org/2000/svg">
<path d="M28.75 5H11.25C9.92392 5 8.65215 5.52678 7.71447 6.46447C6.77678 7.40215 6.25 8.67392 6.25 10V32.5C6.25 33.163 6.51339 33.7989 6.98223 34.2678C7.45107 34.7366 8.08696 35 8.75 35H12.5C13.163 35 13.7989 34.7366 14.2678 34.2678C14.7366 33.7989 15 33.163 15 32.5V30H25V32.5C25 33.163 25.2634 33.7989 25.7322 34.2678C26.2011 34.7366 26.837 35 27.5 35H31.25C31.913 35 32.5489 34.7366 33.0178 34.2678C33.4866 33.7989 33.75 33.163 33.75 32.5V10C33.75 8.67392 33.2232 7.40215 32.2855 6.46447C31.3479 5.52678 30.0761 5 28.75 5ZM8.75 27.5V18.75H31.25V27.5H8.75ZM8.75 12.5H31.25V16.25H8.75V12.5ZM11.25 7.5H28.75C29.413 7.5 30.0489 7.76339 30.5178 8.23223C30.9866 8.70107 31.25 9.33696 31.25 10H8.75C8.75 9.33696 9.01339 8.70107 9.48223 8.23223C9.95107 7.76339 10.587 7.5 11.25 7.5ZM12.5 32.5H8.75V30H12.5V32.5ZM27.5 32.5V30H31.25V32.5H27.5ZM16.25 23.125C16.25 23.4958 16.14 23.8584 15.934 24.1667C15.728 24.475 15.4351 24.7154 15.0925 24.8573C14.7499 24.9992 14.3729 25.0363 14.0092 24.964C13.6455 24.8916 13.3114 24.713 13.0492 24.4508C12.787 24.1886 12.6084 23.8545 12.536 23.4908C12.4637 23.1271 12.5008 22.7501 12.6427 22.4075C12.7846 22.0649 13.025 21.772 13.3333 21.566C13.6416 21.36 14.0042 21.25 14.375 21.25C14.8723 21.25 15.3492 21.4475 15.7008 21.7992C16.0525 22.1508 16.25 22.6277 16.25 23.125ZM27.5 23.125C27.5 23.4958 27.39 23.8584 27.184 24.1667C26.978 24.475 26.6851 24.7154 26.3425 24.8573C25.9999 24.9992 25.6229 25.0363 25.2592 24.964C24.8955 24.8916 24.5614 24.713 24.2992 24.4508C24.037 24.1886 23.8584 23.8545 23.786 23.4908C23.7137 23.1271 23.7508 22.7501 23.8927 22.4075C24.0346 22.0649 24.275 21.772 24.5833 21.566C24.8916 21.36 25.2542 21.25 25.625 21.25C26.1223 21.25 26.5992 21.4475 26.9508 21.7992C27.3025 22.1508 27.5 22.6277 27.5 23.125ZM38.75 12.5V16.25C38.75 16.5815 38.6183 16.8995 38.3839 17.1339C38.1495 17.3683 37.8315 17.5 37.5 17.5C37.1685 17.5 36.8505 17.3683 36.6161 17.1339C36.3817 16.8995 36.25 16.5815 36.25 16.25V12.5C36.25 12.1685 36.3817 11.8505 36.6161 11.6161C36.8505 11.3817 37.1685 11.25 37.5 11.25C37.8315 11.25 38.1495 11.3817 38.3839 11.6161C38.6183 11.8505 38.75 12.1685 38.75 12.5ZM3.75 12.5V16.25C3.75 16.5815 3.6183 16.8995 3.38388 17.1339C3.14946 17.3683 2.83152 17.5 2.5 17.5C2.16848 17.5 1.85054 17.3683 1.61612 17.1339C1.3817 16.8995 1.25 16.5815 1.25 16.25V12.5C1.25 12.1685 1.3817 11.8505 1.61612 11.6161C1.85054 11.3817 2.16848 11.25 2.5 11.25C2.83152 11.25 3.14946 11.3817 3.38388 11.6161C3.6183 11.8505 3.75 12.1685 3.75 12.5Z" fill="#FF0000"/>
</svg>
