<svg width="40" height="40" viewBox="0 0 40 40" fill="none" xmlns="http://www.w3.org/2000/svg">
<path d="M35.7687 7.76411C35.619 7.64744 35.4447 7.5664 35.259 7.52715C35.0732 7.48789 34.881 7.49145 34.6969 7.53755L25.1453 9.92505L15.5594 5.1313C15.2923 4.99808 14.9863 4.96483 14.6969 5.03755L4.69687 7.53755C4.42645 7.60515 4.18638 7.76119 4.01482 7.98088C3.84325 8.20058 3.75004 8.47131 3.75 8.75005V31.2501C3.75003 31.44 3.79334 31.6274 3.87665 31.7981C3.95996 31.9688 4.08107 32.1183 4.23079 32.2352C4.38051 32.352 4.5549 32.4333 4.7407 32.4727C4.92651 32.5121 5.11885 32.5086 5.30312 32.4626L14.8547 30.0751L24.4406 34.8688C24.6146 34.9546 24.806 34.9995 25 35.0001C25.1022 35 25.204 34.9874 25.3031 34.9626L35.3031 32.4626C35.5735 32.395 35.8136 32.2389 35.9852 32.0192C36.1567 31.7995 36.25 31.5288 36.25 31.2501V8.75005C36.25 8.55994 36.2067 8.37231 36.1233 8.20146C36.0399 8.03061 35.9187 7.88104 35.7687 7.76411ZM16.25 8.27193L23.75 12.0219V31.7282L16.25 27.9782V8.27193ZM6.25 9.72661L13.75 7.85161V27.7735L6.25 29.6485V9.72661ZM33.75 30.2735L26.25 32.1485V12.2266L33.75 10.3516V30.2735Z" fill="#FC961B"/>
</svg>
