<svg width="72" height="72" viewBox="0 0 72 72" fill="none" xmlns="http://www.w3.org/2000/svg">
<path d="M69.1886 38.0616L63.1059 31.9893C63.1163 31.9058 63.1372 31.8326 63.1372 31.7594V26.7218C67.0461 26.1261 69.9934 22.792 69.9934 18.7369C69.9934 14.6712 67.0461 11.3477 63.1372 10.7519V5.71439C63.1372 3.10153 60.4826 1.1889 57.9429 2.21311L43.3004 8.16C42.3597 8.53624 41.649 9.25739 41.2623 10.1458L40.7397 9.62323C33.7163 2.61028 23.1081 1.59652 14.9978 6.49825C13.754 6.08017 12.3849 5.85021 10.9426 5.85021C5.21521 5.85021 0.553833 9.5396 0.553833 14.0964C0.553833 16.8556 2.29921 19.4058 5.15251 20.9213C3.9401 28.0387 6.32307 34.7067 10.9948 39.3681L39.4333 67.8065C42.4015 70.7956 47.3451 70.8479 50.3551 67.8065L69.1886 48.9834C72.2091 45.9421 72.1882 41.0821 69.1886 38.0616ZM63.1372 12.8632C65.8755 13.438 67.9031 15.8314 67.9031 18.7369C67.9031 21.632 65.8755 24.0358 63.1372 24.6001V12.8632ZM43.0286 11.6508C43.0286 10.961 43.4466 10.3548 44.0842 10.0935L58.7267 4.15707C59.845 3.70767 61.0469 4.51245 61.0469 5.71439V31.7594C61.0469 32.9509 59.845 33.7766 58.7267 33.3167L44.0842 27.3803C43.4466 27.119 43.0286 26.5128 43.0286 25.823V11.6508ZM43.3004 29.3138L54.7343 33.9542L62.5206 41.751C63.6284 42.8484 63.6598 44.667 62.5206 45.8062L47.1778 61.149C46.0909 62.2359 44.2096 62.2359 43.1227 61.149L21.1328 39.1591C20.0145 38.0512 19.9831 36.2535 21.1328 35.1039L34.3539 21.8828V22.6457C34.3539 24.7151 36.0366 26.3978 38.106 26.3978H40.9906C41.1892 27.6938 42.0462 28.8121 43.3004 29.3138ZM40.9383 13.1662V24.3075H38.106C37.1862 24.3075 36.4442 23.555 36.4442 22.6457V14.828C36.4442 13.9188 37.1862 13.1662 38.106 13.1662L40.9383 13.1662ZM2.64413 14.0964C2.64413 10.6997 6.36484 7.94049 10.9426 7.94049C11.5488 7.94049 12.1445 7.9928 12.7194 8.08683C12.1236 8.56762 11.5488 9.06927 10.9948 9.62323C8.40289 12.2152 6.58434 15.3611 5.62276 18.7996C3.76244 17.6395 2.64413 15.915 2.64413 14.0964ZM67.7045 47.4993L48.8814 66.3329C46.6866 68.5277 43.1123 68.5277 40.9174 66.3329L12.4685 37.884C5.05842 30.4739 5.06887 18.4965 12.4685 11.0968C13.3256 10.2503 14.2452 9.48735 15.2173 8.82889C17.3703 9.79041 18.8962 11.4627 19.1888 13.3962C18.06 13.4171 16.9313 13.8456 16.0847 14.7026C14.3289 16.4584 14.3184 19.2699 16.0847 21.0257C17.7674 22.7398 20.6311 22.8025 22.4079 21.0257C23.2544 20.1792 23.7143 19.0609 23.7143 17.8694C23.7143 16.3435 22.9513 14.8176 21.3209 13.9292C21.2582 11.3581 19.7114 9.07972 17.318 7.59563C24.5504 3.93762 33.3715 5.22313 39.2452 11.0759H38.1059C36.0366 11.0759 34.3539 12.7587 34.3539 14.828V18.925L19.6487 33.6198C17.7047 35.5951 17.7151 38.7096 19.6487 40.6327L41.6386 62.6226C43.5825 64.577 46.7389 64.5561 48.6515 62.6226L64.0047 47.2798C65.9173 45.3672 65.9591 42.2527 64.0047 40.2669L59.2597 35.5219C59.2911 35.5219 59.3224 35.5324 59.3643 35.5324C60.4721 35.5324 61.4963 35.0934 62.2802 34.1215L67.7045 39.5458C69.8889 41.7092 69.9202 45.3045 67.7045 47.4993ZM20.9656 16.239C21.3836 16.678 21.624 17.2528 21.624 17.8694C21.624 18.507 21.3731 19.1027 20.9342 19.5521C20.1713 20.3046 19.0739 20.43 18.1959 20.0015C19.5441 18.9564 20.4953 17.6708 20.9656 16.239ZM16.9104 18.3502C16.7431 17.5036 17.0149 16.7198 17.5584 16.1763C17.966 15.7687 18.4886 15.5597 19.0216 15.5074C18.6767 16.5734 17.9556 17.5559 16.9104 18.3502Z" fill="#322153"/>
<path d="M62.5205 45.8062L47.1778 61.149C46.0909 62.2359 44.2096 62.2359 43.1226 61.149L21.1328 39.1591C20.0144 38.0512 19.9831 36.2536 21.1328 35.1039L34.3539 21.8828V22.6457C34.3539 24.7152 36.0366 26.3978 38.1059 26.3978H40.9905C41.1891 27.6938 42.0462 28.8121 43.3004 29.3138L54.7343 33.9542L62.5206 41.751C63.6284 42.8484 63.6598 44.667 62.5205 45.8062Z" fill="#50D8C8"/>
<path d="M38.0537 50.2343C38.5868 50.4193 39.191 50.1374 39.3801 49.5821L44.8002 33.6814C44.9865 33.1353 44.6946 32.5413 44.1485 32.3556C43.6025 32.1647 43.0085 32.4607 42.8222 33.0078L37.402 48.9085C37.2158 49.4545 37.5077 50.0485 38.0537 50.2343Z" fill="#322153"/>
<path d="M31.4409 38.7285C32.3891 40.6103 34.6913 41.3747 36.5809 40.4228C38.465 39.4726 39.2249 37.1669 38.2752 35.2828C37.3231 33.3933 35.0276 32.6349 33.1352 33.5895C31.2515 34.5387 30.4912 36.8444 31.4409 38.7285ZM34.0762 35.4553C34.9415 35.0199 35.978 35.3693 36.4084 36.2238C36.8396 37.0791 36.4946 38.1253 35.6398 38.557C34.775 38.9911 33.7334 38.6328 33.3076 37.7875C32.8764 36.9332 33.2214 35.887 34.0762 35.4553Z" fill="#322153"/>
<path d="M43.9275 47.3081C44.8735 49.1854 47.1738 49.9564 49.0675 49.0024C50.9517 48.0522 51.7115 45.7465 50.7618 43.8624C49.8132 41.9799 47.5218 41.2106 45.6218 42.1691C43.7377 43.1183 42.9778 45.424 43.9275 47.3081ZM46.5629 44.0349C47.4277 43.5998 48.4646 43.9489 48.8951 44.8034C49.3263 45.6587 48.9813 46.7049 48.1265 47.1366C47.2529 47.5751 46.2151 47.2024 45.7943 46.3671C45.3631 45.5118 45.7081 44.4666 46.5629 44.0349Z" fill="#322153"/>
</svg>
