<svg width="72" height="72" viewBox="0 0 72 72" fill="none" xmlns="http://www.w3.org/2000/svg">
<path d="M9.42402 31.7398C8.44575 32.7181 8.44451 34.3046 9.42278 35.2829L11.1422 37.0023C11.8598 37.7199 12.0733 38.8012 11.6822 39.7385L10.7462 41.983C10.2136 43.2605 10.8169 44.7279 12.0944 45.2605L14.504 46.2276C15.4364 46.6174 16.1353 47.5299 16.1353 48.5404V51.0519C16.1353 52.4361 17.0739 53.3771 18.4581 53.3771H20.8901C21.9056 53.3771 22.8205 54.081 23.2079 55.0196L24.1328 57.3138C24.6591 58.5937 26.1241 59.2268 27.404 58.7005L29.7268 57.757C30.6616 57.3721 31.7367 57.5931 32.4518 58.3082L34.227 60.0872C35.2053 61.0654 36.7919 61.0667 37.7701 60.0884L39.4896 58.369C40.2084 57.6514 41.2884 57.4379 42.2257 57.829L44.4703 58.765C45.7477 59.2976 47.2151 58.6943 47.7477 57.4168L48.7148 55.0084C49.1046 54.076 50.0171 53.3771 51.0276 53.3771H53.5391C54.9233 53.3771 55.8619 52.4361 55.8619 51.0519V48.6199C55.8619 47.6043 56.567 46.6894 57.5055 46.3021L59.801 45.3772C61.0809 44.8508 61.7141 43.3859 61.1877 42.1059L60.2442 39.7832C59.8593 38.8484 60.0803 37.7733 60.7954 37.0582L62.5769 35.2829C63.5551 34.3046 63.5551 32.7181 62.5769 31.7398L60.8575 30.0204C60.1399 29.3016 59.9251 28.2215 60.3162 27.2842L61.2523 25.0397C61.7848 23.7622 61.1815 22.2948 59.904 21.7622L57.4944 20.7951C56.5608 20.4053 55.8619 19.4941 55.8619 18.4823V15.9709C55.8619 14.5866 54.9233 13.6506 53.5391 13.6506H51.1071C50.0916 13.6506 49.1766 12.9454 48.7893 12.0056L47.8644 9.7102C47.338 8.43026 45.8731 7.79712 44.5932 8.32349L42.2704 9.267C41.3356 9.65185 40.2605 9.43087 39.5454 8.71579L37.7701 6.93679C36.7919 5.95852 35.2053 5.95728 34.227 6.93555L32.5076 8.65496C31.7888 9.37252 30.7088 9.58605 29.7715 9.19499L27.5269 8.25894C26.2494 7.72635 24.782 8.3297 24.2495 9.60716L23.2824 12.0181C22.8926 12.9504 21.9801 13.6506 20.9695 13.6506H18.4581C17.0739 13.6506 16.1353 14.5866 16.1353 15.9709V18.4029C16.1353 19.4184 15.4302 20.3333 14.4916 20.7207L12.1962 21.6455C10.9162 22.1719 10.2831 23.6368 10.8095 24.9168L11.753 27.2395C12.1378 28.1743 11.9169 29.2494 11.2018 29.9645L9.42402 31.7398ZM35.9986 18.4773C44.3027 18.4773 51.0338 25.2085 51.0338 33.5126C51.0338 41.8167 44.3027 48.5466 35.9986 48.5466C27.6945 48.5466 20.9633 41.8154 20.9633 33.5114C20.9633 25.2073 27.6945 18.4773 35.9986 18.4773Z" fill="#50D8C8"/>
<path d="M8.54516 25.8975C7.08521 27.3612 7.08521 29.7386 8.54516 31.1985L10.2646 32.9192C10.6283 33.2817 10.7351 33.8242 10.5365 34.2984L9.60039 36.543C8.80586 38.4499 9.71088 40.6497 11.6327 41.4505L14.0262 42.4101C14.529 42.6199 14.8952 43.1103 14.8952 43.5771V46.0873C14.894 48.1543 16.3924 49.6527 18.4582 49.6527H19.8598V70.7575C19.8598 71.156 20.051 71.5309 20.375 71.7655C20.699 71.9977 21.1161 72.0635 21.4935 71.9356L35.9987 67.1001L50.5038 71.9356C50.6317 71.9778 50.7645 71.9989 50.8961 71.9989C51.1531 71.9989 51.4076 71.9195 51.6224 71.7655C51.9464 71.5309 52.1376 71.156 52.1376 70.7575V49.6527H53.5392C55.605 49.6527 57.1034 48.1543 57.1034 46.0885V43.6565C57.1034 43.1873 57.4709 42.6969 57.9699 42.492L60.2728 41.5634C62.1946 40.7714 63.1195 38.5777 62.3374 36.6758L61.3901 34.3493C61.1965 33.8776 61.307 33.3388 61.6707 32.9763L63.4534 31.201C63.4534 31.1998 63.4547 31.1985 63.4559 31.1985C64.9146 29.7361 64.9146 27.3599 63.4547 25.8975L61.734 24.1781C61.3703 23.8144 61.2635 23.2731 61.4609 22.7976L62.397 20.5531C62.7831 19.6294 62.7855 18.6114 62.4044 17.6841C62.0233 16.7592 61.3057 16.0366 60.3647 15.6443L57.9724 14.6859C57.4696 14.4761 57.1034 13.9858 57.1034 13.519V11.0088C57.1034 8.94173 55.605 7.4433 53.5392 7.4433H51.1072C50.6305 7.4433 50.15 7.08327 49.9427 6.57676L49.0141 4.27386C48.222 2.35457 46.0321 1.42969 44.1265 2.20932L41.8 3.15655C41.3258 3.35022 40.7895 3.23725 40.4257 2.87598L38.6492 1.0945C37.1843 -0.365453 34.8081 -0.364212 33.3482 1.0945L31.6275 2.81391C31.265 3.17642 30.7225 3.28566 30.2483 3.08579L28.0037 2.14973C26.0981 1.35769 23.8982 2.25774 23.0962 4.18199L22.1366 6.57428C21.9268 7.07707 21.4364 7.4433 20.9696 7.4433H18.4594C16.3924 7.4433 14.894 8.94173 14.894 11.0075V13.4395C14.894 13.9088 14.5265 14.3992 14.0274 14.604L11.7245 15.5326C9.80399 16.3247 8.87911 18.5171 9.65998 20.4202L10.6072 22.7467C10.8009 23.2185 10.6904 23.7572 10.3266 24.121L8.54516 25.8975ZM36.391 64.6148C36.1365 64.5303 35.8596 64.5303 35.6051 64.6148L22.3427 69.0343V51.2319L22.9845 52.8222C23.7778 54.7427 25.9702 55.6688 27.8721 54.8867L30.1986 53.9395C30.6741 53.7458 31.2091 53.8588 31.5729 54.2201L33.3494 56.0015C34.0819 56.7315 35.0415 57.0965 36.0012 57.0965C36.9608 57.0965 37.9205 56.7315 38.6504 56.0015L40.3711 54.2821C40.7336 53.9184 41.2761 53.8104 41.7503 54.0103L43.9949 54.9463C45.898 55.7383 48.1004 54.8383 48.9024 52.914L49.6547 51.0357V69.0343L36.391 64.6148ZM12.0796 25.8789C13.1547 24.8038 13.4775 23.2048 12.9039 21.8082L11.9567 19.4817C11.6935 18.8411 12.0125 18.1012 12.6593 17.8343L14.961 16.9057C16.4073 16.3135 17.3769 14.9193 17.3769 13.4395V11.0075C17.3769 10.3111 17.7617 9.9262 18.4582 9.9262H20.9684C22.4408 9.9262 23.8299 8.96408 24.4333 7.51406L25.3929 5.12053C25.6611 4.47746 26.401 4.1733 27.0478 4.44022L29.2911 5.37627C30.7026 5.96472 32.3078 5.64567 33.3842 4.56809L35.1036 2.84991C35.5952 2.3583 36.3997 2.3583 36.8913 2.84991L38.6678 4.63016C39.7417 5.70402 41.3394 6.02679 42.7385 5.45448L45.0663 4.50726C45.7019 4.24158 46.4455 4.56312 46.7124 5.20992L47.641 7.51282C48.2357 8.95663 49.6286 9.9262 51.1072 9.9262H53.5392C54.2356 9.9262 54.6205 10.3111 54.6205 11.0075V13.5177C54.6205 14.9901 55.5826 16.3793 57.0326 16.9826L59.4262 17.9423C59.7378 18.0714 59.9799 18.3172 60.109 18.6288C60.2381 18.9416 60.2368 19.2843 60.1065 19.5971L59.1704 21.8417C58.5832 23.2495 58.901 24.8559 59.9786 25.9335L61.698 27.6529C62.1896 28.1445 62.1909 28.9465 61.7005 29.4394L59.9165 31.2171C58.8414 32.2922 58.5187 33.8912 59.0922 35.2879L60.0394 37.6156C60.3026 38.2562 59.9836 38.9949 59.3368 39.2618L57.0351 40.1904C55.5901 40.7826 54.6205 42.1767 54.6205 43.6565V46.0885C54.6205 46.785 54.2356 47.1698 53.5392 47.1698H51.029C49.5566 47.1698 48.1674 48.132 47.5641 49.582L46.6044 51.9755C46.335 52.6186 45.5964 52.9227 44.9496 52.6558L42.7063 51.7198C41.2935 51.1276 39.6895 51.4504 38.6132 52.528L36.8938 54.2461C36.4022 54.7377 35.5977 54.7377 35.1061 54.2461L33.3296 52.4659C32.6083 51.7446 31.6499 51.361 30.6753 51.361C30.1986 51.361 29.7182 51.4529 29.2576 51.6416L26.9299 52.5888C26.2942 52.8532 25.5494 52.5329 25.2837 51.8861L24.3551 49.5845C23.7641 48.1394 22.37 47.1698 20.8902 47.1698H18.4582C17.7617 47.1698 17.3769 46.785 17.3769 46.0885V43.5783C17.3769 42.1059 16.4147 40.7168 14.9647 40.1134L12.5712 39.1538C11.9281 38.8844 11.6227 38.1432 11.8909 37.4989L12.8269 35.2556C13.4154 33.8465 13.0976 32.2401 12.0187 31.1625L10.3006 29.4431C9.80896 28.9515 9.80896 28.147 10.3006 27.6554L12.0796 25.8789Z" fill="#322153"/>
<path d="M35.9986 44.8235C44.9731 44.8235 52.2741 37.5225 52.2741 28.548C52.2741 19.5735 44.9731 12.2726 35.9986 12.2726C27.0241 12.2726 19.7231 19.5735 19.7231 28.548C19.7231 37.5225 27.0241 44.8235 35.9986 44.8235ZM35.9986 14.7555C43.6038 14.7555 49.7912 20.9429 49.7912 28.548C49.7912 36.1532 43.6038 42.3406 35.9986 42.3406C28.3935 42.3406 22.2061 36.1532 22.2061 28.548C22.2061 20.9429 28.3935 14.7555 35.9986 14.7555Z" fill="#322153"/>
<path d="M35.9988 37.2382C36.6853 37.2382 37.2402 36.6833 37.2402 35.9967C37.2402 35.3102 36.6853 34.7553 35.9988 34.7553C32.5761 34.7553 29.7915 31.9707 29.7915 28.548C29.7915 27.8615 29.2366 27.3066 28.55 27.3066C27.8635 27.3066 27.3086 27.8615 27.3086 28.548C27.3086 33.3388 31.208 37.2382 35.9988 37.2382Z" fill="#322153"/>
<path d="M35.9988 22.3407C39.4215 22.3407 42.206 25.1253 42.206 28.548C42.206 29.2345 42.761 29.7895 43.4475 29.7895C44.134 29.7895 44.689 29.2345 44.689 28.548C44.689 23.7572 40.7896 19.8578 35.9988 19.8578C35.3123 19.8578 34.7573 20.4128 34.7573 21.0993C34.7573 21.7858 35.3123 22.3407 35.9988 22.3407Z" fill="#322153"/>
</svg>
