<svg width="72" height="73" viewBox="0 0 72 73" fill="none" xmlns="http://www.w3.org/2000/svg">
<g clip-path="url(#clip0_767_3342)">
<path d="M70.1302 16.7892C70.1302 29.3143 55.2331 38.1761 55.2331 38.1761C55.2331 38.1761 40.3359 29.388 40.3359 16.7892C40.3359 8.56948 47.0055 1.90625 55.2331 1.90625C63.4606 1.90625 70.1302 8.56948 70.1302 16.7892Z" stroke="#322153" stroke-width="3" stroke-miterlimit="10" stroke-linecap="round" stroke-linejoin="round"/>
<path d="M55.2337 23.7311C59.0713 23.7311 62.1823 20.6231 62.1823 16.7891C62.1823 12.9552 59.0713 9.84717 55.2337 9.84717C51.3961 9.84717 48.2852 12.9552 48.2852 16.7891C48.2852 20.6231 51.3961 23.7311 55.2337 23.7311Z" fill="#50D8C8"/>
<path d="M55.2327 45.0294C57.127 45.0294 58.6627 43.4952 58.6627 41.6028C58.6627 39.7103 57.127 38.1761 55.2327 38.1761C53.3384 38.1761 51.8027 39.7103 51.8027 41.6028C51.8027 43.4952 53.3384 45.0294 55.2327 45.0294Z" stroke="#322153" stroke-width="3" stroke-miterlimit="10" stroke-linecap="round" stroke-linejoin="round"/>
<path d="M36.332 38.4303C36.332 52.9172 19.1016 63.167 19.1016 63.167C19.1016 63.167 1.87109 53.0025 1.87109 38.4303C1.87109 28.9234 9.58536 21.2164 19.1016 21.2164C28.6178 21.2164 36.332 28.9234 36.332 38.4303Z" stroke="#322153" stroke-width="3" stroke-miterlimit="10" stroke-linecap="round" stroke-linejoin="round"/>
<path d="M19.1011 48.4007C24.6129 48.4007 29.0811 43.9368 29.0811 38.4303C29.0811 32.9238 24.6129 28.4598 19.1011 28.4598C13.5893 28.4598 9.12109 32.9238 9.12109 38.4303C9.12109 43.9368 13.5893 48.4007 19.1011 48.4007Z" fill="#50D8C8"/>
<path d="M19.1019 71.0937C21.2929 71.0937 23.0691 69.3193 23.0691 67.1304C23.0691 64.9415 21.2929 63.167 19.1019 63.167C16.9109 63.167 15.1348 64.9415 15.1348 67.1304C15.1348 69.3193 16.9109 71.0937 19.1019 71.0937Z" stroke="#322153" stroke-width="3" stroke-miterlimit="10" stroke-linecap="round" stroke-linejoin="round"/>
<path d="M55.2334 50.9478C55.2334 52.825 53.7102 54.3469 51.8311 54.3469H46.7301C44.8717 54.3469 43.3651 55.852 43.3651 57.7086C43.3651 59.5653 44.8716 61.0704 46.7301 61.0704H62.1219C64.132 61.0704 65.7615 62.6983 65.7615 64.7064C65.7615 66.7146 64.132 68.3424 62.1219 68.3424H29.127" stroke="#322153" stroke-width="3" stroke-miterlimit="10" stroke-linecap="round" stroke-linejoin="round"/>
</g>
<defs>
<clipPath id="clip0_767_3342">
<rect width="72" height="72" fill="white" transform="translate(0 0.5)"/>
</clipPath>
</defs>
</svg>
