<svg width="72" height="73" viewBox="0 0 72 73" fill="none" xmlns="http://www.w3.org/2000/svg">
<g clip-path="url(#clip0_769_3447)">
<path d="M25.886 29.3879C27.603 27.1749 27.1555 24.0062 25.5706 21.6513C23.9119 19.1869 19.268 12.1834 17.0523 10.7136C15.2038 9.4871 12.4653 9.52943 10.487 10.728C9.87794 11.0987 7.89358 12.9916 6.20312 14.6736L20.3009 34.2731C22.552 32.3314 25.7514 29.5616 25.886 29.3879Z" fill="#50D8C8"/>
<path d="M61.7974 62.038C62.9984 60.0627 63.0409 57.3241 61.8144 55.4756C60.3447 53.2598 53.5655 48.8233 50.8768 46.9575C48.5447 45.3387 45.3507 44.9224 43.1373 46.6392C42.9637 46.7739 40.1936 49.9735 38.252 52.2245L57.8545 66.3247C59.5361 64.6341 61.4284 62.6489 61.7974 62.038Z" fill="#50D8C8"/>
<path d="M52.3105 32.8438C59.3004 32.8438 64.9668 27.1774 64.9668 20.1875C64.9668 13.1976 59.3004 7.53125 52.3105 7.53125C45.3207 7.53125 39.6543 13.1976 39.6543 20.1875C39.6543 27.1774 45.3207 32.8438 52.3105 32.8438Z" fill="#50D8C8"/>
<path d="M52.9762 46.6921C52.4836 46.3557 52.043 46.0552 51.6784 45.8021C48.855 43.8422 45.0008 43.4139 42.2753 45.5277C42.1461 45.6279 41.9093 45.8115 35.8858 52.8156C29.9238 50.8806 21.6469 42.6034 19.7098 36.639C26.7141 30.6154 26.8974 30.3786 26.9973 30.2498C28.9369 27.7499 28.8324 23.9788 26.7373 20.866L26.4815 20.4855C23.3624 15.8428 19.8952 10.912 17.8299 9.54194C15.4756 7.97959 12.147 8.07817 9.75581 9.52675C8.44209 10.3265 2.97614 15.8902 2.48761 16.5106C2.21944 16.8542 1.92173 17.1204 1.62122 17.7099C-1.90369 24.6804 0.983764 37.5651 4.0394 44.6983C7.9028 53.7288 18.7963 64.6222 27.8263 68.4856C32.4884 70.4837 40.1047 72.4999 46.6105 72.4999C49.962 72.4999 52.7227 71.9628 54.8094 70.9067C56.4038 70.1101 62.437 63.6982 62.9988 62.7685C64.5028 60.2948 64.4976 56.9762 62.9862 54.6982C61.675 52.7214 57.3222 49.6592 52.9762 46.6921ZM60.5939 61.3102C60.1171 62.0849 54.3839 67.9753 53.5456 68.3942C47.5679 71.4195 35.0919 68.5397 28.9333 65.9004C20.6102 62.3392 10.1858 51.9148 6.62494 43.5915C3.77995 36.9497 1.12537 24.9228 4.12912 18.9831C4.24739 18.7512 4.39237 18.6421 4.70133 18.2455C5.30292 17.4898 10.4134 12.4269 11.2158 11.9307C12.7719 10.9881 14.922 10.9876 16.2752 11.8856C18.238 13.1878 23.0885 20.4782 24.4043 22.4367C25.5692 24.1676 26.1414 26.6917 24.8205 28.4667C24.236 29.0222 19.881 32.7843 17.199 35.0889C16.8014 35.4306 16.6269 35.9648 16.7459 36.4751C18.4537 43.7912 28.7375 54.0749 36.0504 55.7797C36.5608 55.8987 37.0947 55.7242 37.4362 55.3266C39.741 52.6446 43.5031 48.2893 44.0586 47.705C45.7796 46.4235 48.2983 46.8794 50.075 48.1127C52.0848 49.5071 59.3431 54.2939 60.6425 56.2531C61.5427 57.6098 61.5227 59.7826 60.5939 61.3102Z" fill="#322153"/>
<path d="M57.9355 18.7812H53.7168V14.5625C53.7168 13.786 53.0872 13.1562 52.3105 13.1562C51.5339 13.1562 50.9043 13.786 50.9043 14.5625V18.7812H46.6855C45.9089 18.7812 45.2793 19.4108 45.2793 20.1875C45.2793 20.9642 45.9089 21.5938 46.6855 21.5938H50.9043V25.8125C50.9043 26.5892 51.5339 27.2188 52.3105 27.2188C53.0872 27.2188 53.7168 26.5892 53.7168 25.8125V21.5938H57.9355C58.7122 21.5938 59.3418 20.9642 59.3418 20.1875C59.3418 19.4108 58.7122 18.7812 57.9355 18.7812Z" fill="#322153"/>
<path d="M52.3105 0.5C41.4549 0.5 32.623 9.33181 32.623 20.1875C32.623 25.2747 34.6035 30.162 38.1022 33.8134L34.4412 37.4744C34.0391 37.8766 33.9188 38.4814 34.1365 39.0069C34.3541 39.5323 34.8669 39.875 35.4355 39.875H52.3105C63.1662 39.875 71.998 31.0432 71.998 20.1875C71.998 9.33181 63.1662 0.5 52.3105 0.5ZM52.3105 37.0625H38.8305L41.101 34.7921C41.6703 34.2226 41.6468 33.2904 41.0458 32.7509C37.4804 29.5519 35.4355 24.9727 35.4355 20.1875C35.4355 10.8826 43.0057 3.3125 52.3105 3.3125C61.6156 3.3125 69.1855 10.8826 69.1855 20.1875C69.1855 29.4924 61.6156 37.0625 52.3105 37.0625Z" fill="#322153"/>
</g>
<defs>
<clipPath id="clip0_769_3447">
<rect width="72" height="72" fill="white" transform="translate(0 0.5)"/>
</clipPath>
</defs>
</svg>
