<svg width="72" height="72" viewBox="0 0 72 72" fill="none" xmlns="http://www.w3.org/2000/svg">
<path d="M70 38.5L44.5 38C44.9 41.2 48 43.3333 49.5 44H61H66C70 44 70.3333 40.3333 70 38.5Z" fill="#01AA90"/>
<path d="M26.5 44.5L1 44C1.4 47.2 4.5 49.3333 6 50H17.5H22.5C26.5 50 26.8333 46.3333 26.5 44.5Z" fill="#01AA90"/>
<path d="M36.1207 9.86951C35.2454 9.86008 34.3887 10.1232 33.6682 10.6227C32.9477 11.1222 32.3988 11.8336 32.0969 12.6591L9.67064 15.4757C8.77998 15.5867 7.96491 16.0346 7.39141 16.7282C6.81791 17.4218 6.52911 18.309 6.58382 19.209C6.63852 20.1091 7.03262 20.9544 7.68587 21.5727C8.33911 22.1911 9.20236 22.536 10.0999 22.5373C10.2471 22.5507 10.3952 22.5507 10.5425 22.5373L11.4545 22.4295L4.74814 42.4688V42.617H0L0.107305 43.9647C0.259833 46.0024 1.17459 47.9065 2.66761 49.294C4.16064 50.6816 6.12119 51.4498 8.155 51.444H20.3472C22.3811 51.4498 24.3416 50.6816 25.8346 49.294C27.3277 47.9065 28.2424 46.0024 28.3949 43.9647L28.4888 42.617H24.0626C24.0764 42.5686 24.0764 42.5172 24.0626 42.4688L17.1013 21.7287L31.9359 19.869V54.4897H24.1967C23.1156 54.5509 22.0988 55.0255 21.3549 55.8161C20.6111 56.6068 20.1966 57.6535 20.1966 58.7415C20.1966 59.8295 20.6111 60.8762 21.3549 61.6668C22.0988 62.4575 23.1156 62.9321 24.1967 62.9933H48.1252C48.701 63.0258 49.2773 62.94 49.8189 62.7411C50.3605 62.5421 50.856 62.2342 51.2751 61.8362C51.6942 61.4382 52.028 60.9585 52.2561 60.4263C52.4843 59.8942 52.602 59.3209 52.602 58.7415C52.602 58.1621 52.4843 57.5888 52.2561 57.0566C52.028 56.5245 51.6942 56.0448 51.2751 55.6467C50.856 55.2487 50.3605 54.9408 49.8189 54.7419C49.2773 54.5429 48.701 54.4571 48.1252 54.4897H40.3994V18.7774L54.7779 16.985L48.2057 36.5527C48.1937 36.6014 48.1937 36.6522 48.2057 36.7009H43.5246L43.6185 38.0486C43.7742 40.0838 44.6904 41.9846 46.1831 43.3694C47.6758 44.7542 49.6345 45.5205 51.6662 45.5144H63.8584C65.8901 45.5205 67.8488 44.7542 69.3415 43.3694C70.8342 41.9846 71.7504 40.0838 71.9061 38.0486L72 36.7009H67.6408C67.6528 36.6522 67.6528 36.6014 67.6408 36.5527L60.6528 16.2438L62.2087 16.0552C63.0952 15.8889 63.8853 15.3891 64.4176 14.6576C64.9499 13.9262 65.1843 13.0182 65.0731 12.119C64.9619 11.2197 64.5133 10.3971 63.819 9.81876C63.1247 9.24046 62.2369 8.95013 61.3368 9.00702L39.6215 11.7023C39.2322 11.1318 38.7093 10.6663 38.0989 10.3467C37.4884 10.0271 36.8091 9.86323 36.1207 9.86951ZM25.699 44.9754C25.3447 46.1325 24.6347 47.147 23.6707 47.8734C22.7068 48.5998 21.5386 49.0006 20.3338 49.0183H8.11476C6.91052 48.9985 5.74328 48.5969 4.77976 47.8709C3.81624 47.1448 3.1057 46.1314 2.74963 44.9754H25.699ZM21.8629 42.5901H6.88077L13.7616 22.106L14.9285 21.9578L21.8629 42.5901ZM48.085 56.592C48.3765 56.5686 48.6698 56.6062 48.9462 56.7022C49.2226 56.7983 49.4763 56.9508 49.6911 57.1502C49.906 57.3496 50.0775 57.5915 50.1948 57.8607C50.3121 58.1299 50.3726 58.4206 50.3726 58.7145C50.3726 59.0084 50.3121 59.2991 50.1948 59.5683C50.0775 59.8376 49.906 60.0795 49.6911 60.2788C49.4763 60.4782 49.2226 60.6307 48.9462 60.7268C48.6698 60.8229 48.3765 60.8604 48.085 60.837H24.1565C23.6253 60.7945 23.1295 60.5524 22.768 60.1591C22.4065 59.7657 22.2057 59.2499 22.2057 58.7145C22.2057 58.1791 22.4065 57.6633 22.768 57.27C23.1295 56.8766 23.6253 56.6346 24.1565 56.592H48.085ZM69.1431 39.0728C68.7852 40.2277 68.0742 41.2399 67.1111 41.9657C66.1479 42.6915 64.9817 43.0939 63.778 43.1157H51.5589C50.3552 43.0939 49.1889 42.6915 48.2258 41.9657C47.2626 41.2399 46.5516 40.2277 46.1938 39.0728H69.1431ZM65.307 36.674H50.3249L57.0313 16.6616L58.5067 16.4864L65.307 36.674ZM61.5917 11.0689H61.766C62.1104 11.0691 62.443 11.195 62.702 11.423C62.961 11.651 63.1289 11.9658 63.1744 12.3087C63.2009 12.4949 63.1884 12.6847 63.1376 12.8657C63.0867 13.0467 62.9988 13.2151 62.8793 13.3599C62.7686 13.5103 62.628 13.6359 62.4663 13.7287C62.3047 13.8215 62.1256 13.8795 61.9404 13.8989L40.3592 16.5942L39.2996 16.7155L38.2399 16.8503V54.4088H34.0149V17.4297L32.9553 17.5645L31.8957 17.6993L10.2474 20.408C9.87346 20.4508 9.49775 20.3444 9.20119 20.1115C8.91155 19.8783 8.72415 19.5406 8.67904 19.1704C8.63392 18.8002 8.73468 18.427 8.95976 18.1305C9.07046 17.9801 9.2111 17.8545 9.37274 17.7617C9.53439 17.6689 9.71349 17.6109 9.89866 17.5915L31.8689 14.8962L32.9285 14.7614L33.9881 14.6267V14.1685C33.9909 13.9585 34.0225 13.7499 34.082 13.5486C34.234 13.0519 34.5637 12.6295 35.0075 12.3626C35.3316 12.1532 35.7085 12.041 36.0939 12.0392C36.3042 12.0386 36.5131 12.0751 36.7109 12.147C37.2042 12.2941 37.6251 12.6209 37.8912 13.0634C38.0855 13.3758 38.1964 13.7331 38.2131 14.1011L39.2459 13.9663L40.3055 13.8316L61.5917 11.0689Z" fill="#322153"/>
</svg>
