<svg width="72" height="72" viewBox="0 0 72 72" fill="none" xmlns="http://www.w3.org/2000/svg">
<g clip-path="url(#clip0_5150_2681)">
<g clip-path="url(#clip1_5150_2681)">
<path d="M22.1921 57.3335H22.1876C21.6377 57.3286 21.1232 57.0839 20.7514 56.6718C20.3812 56.2613 20.1788 55.7158 20.1747 55.155V55.1514V38.1256V37.3267L20.8933 37.6759L35.8039 44.9223C35.8044 44.9225 35.8049 44.9227 35.8054 44.923C35.8714 44.9542 35.9401 44.9693 36.008 44.9693C36.0764 44.9693 36.1456 44.954 36.2121 44.9223L53.4828 36.7167L54.199 36.3764L54.1973 37.1694L54.1604 55.1514L22.1921 57.3335ZM22.1921 57.3335H52.143C52.4155 57.3335 52.6839 57.2739 52.9323 57.1598C53.1805 57.0459 53.4026 56.8804 53.5872 56.6757C53.7717 56.4712 53.9158 56.231 54.0132 55.9701C54.1106 55.7096 54.1603 55.4319 54.1604 55.1525L22.1921 57.3335ZM9.99482 38.3526L10.381 38.2624V37.8658V32.929V32.6142L10.0972 32.4781L0.857828 28.0473L0.856858 28.0468C0.744116 27.9931 0.640029 27.8919 0.572683 27.7488C0.505127 27.6051 0.48293 27.4358 0.51341 27.2718C0.543874 27.1079 0.622831 26.9702 0.725913 26.8771C0.827816 26.785 0.946551 26.7417 1.06097 26.7417H1.07709L1.09319 26.7407C1.26601 26.7296 1.49732 26.6787 1.75298 26.6106C2.01904 26.5397 2.34645 26.4405 2.72651 26.317C3.48719 26.0697 4.47682 25.7192 5.64251 25.2882C7.97488 24.426 11.0287 23.2357 14.3993 21.8907C21.1374 19.2018 29.1532 15.89 35.2293 13.3325C35.3497 13.2893 35.4775 13.2902 35.5976 13.3352C35.5975 13.3352 35.5977 13.3352 35.5976 13.3352L71.1038 26.7749C71.1048 26.7753 71.1058 26.7757 71.1067 26.7761C71.2062 26.8162 71.3012 26.8915 71.3742 27.0012C71.4482 27.1123 71.4936 27.2505 71.4994 27.3983C71.5052 27.5462 71.4708 27.6896 71.4047 27.8095C71.3396 27.9274 71.2495 28.0133 71.1519 28.064L55.5407 35.569L55.2574 35.7052V36.0196V55.1614C55.2424 56.1099 54.8955 57.0062 54.3027 57.6634C53.7117 58.3187 52.9255 58.6832 52.1136 58.6993H22.1921C21.3697 58.6995 20.5686 58.3418 19.9653 57.684C19.3611 57.0254 19.0067 56.1204 18.9914 55.1613V37.1273V36.8133L18.7086 36.6769L12.1583 33.5179L11.4411 33.1721V33.9683V38.2897V38.5566L11.6629 38.7051C12.0131 38.9397 12.3086 39.2745 12.5161 39.6816C12.7237 40.0889 12.8345 40.5519 12.8351 41.0253V41.0284C12.8387 41.5239 12.7177 42.008 12.4892 42.426L12.4119 42.5675L12.4318 42.7275L13.4679 51.0558L13.4684 51.059C13.4816 51.1604 13.4749 51.2636 13.4491 51.3607C13.4234 51.4579 13.3798 51.5444 13.3242 51.6153C13.2673 51.6881 13.1995 51.7435 13.1286 51.7797C13.0587 51.8155 12.9854 51.8333 12.913 51.8343H7.98341C7.90946 51.8335 7.83457 51.8151 7.76325 51.778C7.69112 51.7404 7.62286 51.6837 7.56558 51.6082L7.56113 51.6023L7.55652 51.5966C7.50079 51.5274 7.45756 51.4412 7.43365 51.3435C7.40973 51.2458 7.40659 51.1425 7.42477 51.0427L7.42698 51.0295L8.66054 43.0568L8.6909 42.8606L8.57842 42.697C8.32659 42.3308 8.15991 41.8959 8.09767 41.4323C8.03543 40.9687 8.08024 40.4956 8.22684 40.0583C8.37342 39.6211 8.61569 39.2375 8.9264 38.9406C9.2368 38.644 9.60493 38.4438 9.99482 38.3526ZM8.75771 49.8929L8.6697 50.4685H9.25197H11.7561H12.3221L12.2522 49.9068L11.3278 42.4734C11.3277 42.4725 11.3276 42.4717 11.3275 42.4708C11.3163 42.3675 11.3242 42.2628 11.3505 42.1639C11.3758 42.0685 11.417 41.9824 11.4698 41.9097C11.5719 41.7871 11.6498 41.6465 11.7014 41.4965C11.7543 41.3425 11.779 41.1798 11.7749 41.0172C11.7732 40.6708 11.6487 40.3301 11.415 40.071C11.1781 39.8084 10.8452 39.6496 10.4855 39.6496C10.126 39.6496 9.79289 39.8084 9.55598 40.071C9.32061 40.3319 9.19603 40.6758 9.19602 41.0248L9.19605 41.029C9.19768 41.2212 9.23663 41.4121 9.31157 41.5891C9.38652 41.7661 9.49664 41.9272 9.63758 42.0595L9.64392 42.0653C9.72101 42.1352 9.78503 42.2312 9.82412 42.3468C9.86323 42.4624 9.87447 42.5893 9.85553 42.7133L8.75771 49.8929ZM4.15431 27.2051L3.00655 27.6019L4.10102 28.1282L10.8979 31.3966L11.0358 31.4629L11.1871 31.4407L31.8987 28.4048L32.1937 28.3616L32.2514 28.2035V28.4982C32.2514 28.8216 32.4298 29.0944 32.6211 29.2911C32.8221 29.4979 33.0956 29.6829 33.4163 29.8375C34.0605 30.148 34.9568 30.3657 36.0327 30.3657C37.1072 30.3657 37.9979 30.1519 38.6375 29.8422C38.956 29.688 39.2275 29.5025 39.4269 29.2934C39.6186 29.0922 39.7893 28.819 39.7893 28.4982C39.7893 28.1773 39.6186 27.9041 39.4269 27.703C39.2275 27.4938 38.956 27.3083 38.6375 27.1541C37.9979 26.8444 37.1072 26.6306 36.0327 26.6306C34.9568 26.6306 34.0658 26.8483 33.4267 27.1598C33.1085 27.3148 32.8378 27.5004 32.6392 27.708C32.5587 27.7921 32.4811 27.8895 32.4185 27.9982H32.3298C32.5003 27.618 32.8867 27.2444 33.5039 26.954C34.1597 26.6455 35.0314 26.4545 36.0327 26.4545C37.1924 26.4545 38.1797 26.714 38.859 27.1124C39.5429 27.5133 39.8501 28.0077 39.8501 28.4845C39.8501 28.9625 39.5444 29.4566 38.8633 29.8568C38.1859 30.2548 37.1989 30.5144 36.0327 30.5144H36.0235L36.0143 30.5148C34.9664 30.5533 33.925 30.282 32.9965 29.7243L32.8434 29.6323L32.6666 29.6581L14.8292 32.2701L13.2116 32.507L14.685 33.2155L35.816 43.3763L36.0327 43.4805L36.2495 43.3762L68.2482 27.9777L69.2994 27.4719L68.2082 27.0595L35.642 14.7517L35.4552 14.6811L35.2712 14.7586C30.2322 16.8808 11.8079 24.5587 4.15431 27.2051Z" fill="#322153"/>
<path d="M22.1921 57.3335H22.1876C21.6377 57.3286 21.1232 57.0839 20.7514 56.6718C20.3812 56.2613 20.1788 55.7158 20.1747 55.155V55.1514V38.1256V37.3267L20.8933 37.6759L35.8039 44.9223C35.8044 44.9225 35.8049 44.9227 35.8054 44.923C35.8714 44.9542 35.9401 44.9693 36.008 44.9693C36.0764 44.9693 36.1456 44.954 36.2121 44.9223L53.4828 36.7167L54.199 36.3764L54.1973 37.1694L54.1604 55.1514L22.1921 57.3335ZM22.1921 57.3335H52.143C52.4155 57.3335 52.6839 57.2739 52.9323 57.1598C53.1805 57.0459 53.4026 56.8804 53.5872 56.6757C53.7717 56.4712 53.9158 56.231 54.0132 55.9701C54.1106 55.7096 54.1603 55.4319 54.1604 55.1525L22.1921 57.3335ZM35.5976 13.3352C35.4775 13.2902 35.3497 13.2893 35.2293 13.3325C29.1532 15.89 21.1374 19.2018 14.3993 21.8907C11.0287 23.2357 7.97488 24.426 5.64251 25.2882C4.47682 25.7192 3.48719 26.0697 2.72651 26.317C2.34645 26.4405 2.01904 26.5397 1.75298 26.6106C1.49732 26.6787 1.26601 26.7296 1.09319 26.7407L1.07709 26.7417H1.06097C0.946551 26.7417 0.827816 26.785 0.725913 26.8771C0.622831 26.9702 0.543874 27.1079 0.51341 27.2718C0.48293 27.4358 0.505127 27.6051 0.572683 27.7488C0.640029 27.8919 0.744116 27.9931 0.856858 28.0468L0.857828 28.0473L10.0972 32.4781L10.381 32.6142V32.929V37.8658V38.2624L9.99482 38.3526C9.60493 38.4438 9.2368 38.644 8.9264 38.9406C8.61569 39.2375 8.37342 39.6211 8.22684 40.0583C8.08024 40.4956 8.03543 40.9687 8.09767 41.4323C8.15991 41.8959 8.32659 42.3308 8.57842 42.697L8.6909 42.8606L8.66054 43.0568L7.42698 51.0295L7.42477 51.0427C7.40659 51.1425 7.40973 51.2458 7.43365 51.3435C7.45756 51.4412 7.50079 51.5274 7.55652 51.5966L7.56113 51.6023L7.56558 51.6082C7.62286 51.6837 7.69112 51.7404 7.76325 51.778C7.83457 51.8151 7.90946 51.8335 7.98341 51.8343H12.913C12.9854 51.8333 13.0587 51.8155 13.1286 51.7797C13.1995 51.7435 13.2673 51.6881 13.3242 51.6153C13.3798 51.5444 13.4234 51.4579 13.4491 51.3607C13.4749 51.2636 13.4816 51.1604 13.4684 51.059L13.4679 51.0558L12.4318 42.7275L12.4119 42.5675L12.4892 42.426C12.7177 42.008 12.8387 41.5239 12.8351 41.0284V41.0253C12.8345 40.5519 12.7237 40.0889 12.5161 39.6816C12.3086 39.2745 12.0131 38.9397 11.6629 38.7051L11.4411 38.5566V38.2897V33.9683V33.1721L12.1583 33.5179L18.7086 36.6769L18.9914 36.8133V37.1273V55.1613C19.0067 56.1204 19.3611 57.0254 19.9653 57.684C20.5686 58.3418 21.3697 58.6995 22.1921 58.6993H52.1136C52.9255 58.6832 53.7117 58.3187 54.3027 57.6634C54.8955 57.0062 55.2424 56.1099 55.2574 55.1614V36.0196V35.7052L55.5407 35.569L71.1519 28.064C71.2495 28.0133 71.3396 27.9274 71.4047 27.8095C71.4708 27.6896 71.5052 27.5462 71.4994 27.3983C71.4936 27.2505 71.4482 27.1123 71.3742 27.0012M35.5976 13.3352C35.5977 13.3352 35.5975 13.3352 35.5976 13.3352ZM35.5976 13.3352L71.1038 26.7749C71.1048 26.7753 71.1058 26.7757 71.1067 26.7761C71.2062 26.8162 71.3012 26.8915 71.3742 27.0012M71.3742 27.0012L71.7905 26.7242M8.75771 49.8929L8.6697 50.4685H9.25197H11.7561H12.3221L12.2522 49.9068L11.3278 42.4734C11.3277 42.4725 11.3276 42.4717 11.3275 42.4708C11.3163 42.3675 11.3242 42.2628 11.3505 42.1639C11.3758 42.0685 11.417 41.9824 11.4698 41.9097C11.5719 41.7871 11.6498 41.6465 11.7014 41.4965C11.7543 41.3425 11.779 41.1798 11.7749 41.0172C11.7732 40.6708 11.6487 40.3301 11.415 40.071C11.1781 39.8084 10.8452 39.6496 10.4855 39.6496C10.126 39.6496 9.79289 39.8084 9.55598 40.071C9.32061 40.3319 9.19603 40.6758 9.19602 41.0248L9.19605 41.029C9.19768 41.2212 9.23663 41.4121 9.31157 41.5891C9.38652 41.7661 9.49664 41.9272 9.63758 42.0595L9.64392 42.0653C9.72101 42.1352 9.78503 42.2312 9.82412 42.3468C9.86323 42.4624 9.87447 42.5893 9.85553 42.7133L8.75771 49.8929ZM4.15431 27.2051L3.00655 27.6019L4.10102 28.1282L10.8979 31.3966L11.0358 31.4629L11.1871 31.4407L31.8987 28.4048L32.1937 28.3616L32.2514 28.2035V28.4982C32.2514 28.8216 32.4298 29.0944 32.6211 29.2911C32.8221 29.4979 33.0956 29.6829 33.4163 29.8375C34.0605 30.148 34.9568 30.3657 36.0327 30.3657C37.1072 30.3657 37.9979 30.1519 38.6375 29.8422C38.956 29.688 39.2275 29.5025 39.4269 29.2934C39.6186 29.0922 39.7893 28.819 39.7893 28.4982C39.7893 28.1773 39.6186 27.9041 39.4269 27.703C39.2275 27.4938 38.956 27.3083 38.6375 27.1541C37.9979 26.8444 37.1072 26.6306 36.0327 26.6306C34.9568 26.6306 34.0658 26.8483 33.4267 27.1598C33.1085 27.3148 32.8378 27.5004 32.6392 27.708C32.5587 27.7921 32.4811 27.8895 32.4185 27.9982H32.3298C32.5003 27.618 32.8867 27.2444 33.5039 26.954C34.1597 26.6455 35.0314 26.4545 36.0327 26.4545C37.1924 26.4545 38.1797 26.714 38.859 27.1124C39.5429 27.5133 39.8501 28.0077 39.8501 28.4845C39.8501 28.9625 39.5444 29.4566 38.8633 29.8568C38.1859 30.2548 37.1989 30.5144 36.0327 30.5144H36.0235L36.0143 30.5148C34.9664 30.5533 33.925 30.282 32.9965 29.7243L32.8434 29.6323L32.6666 29.6581L14.8292 32.2701L13.2116 32.507L14.685 33.2155L35.816 43.3763L36.0327 43.4805L36.2495 43.3762L68.2482 27.9777L69.2994 27.4719L68.2082 27.0595L35.642 14.7517L35.4552 14.6811L35.2712 14.7586C30.2322 16.8808 11.8079 24.5587 4.15431 27.2051Z" stroke="#322153"/>
<path d="M19.5807 39.4348V55.6484C19.6331 56.7135 20.2171 57.5503 21.2835 57.5503H53.026C54.1434 57.5503 54.7733 56.6347 54.755 55.5175V38.9853C54.7317 37.5621 53.2713 36.6181 51.9641 37.1812L37.0151 43.8391C36.4708 44.0736 35.3415 44.0545 34.8126 43.7871L22.4808 37.5518C21.1118 36.8596 19.5054 37.9027 19.5807 39.4348Z" fill="#01AA90"/>
</g>
</g>
<defs>
<clipPath id="clip0_5150_2681">
<rect width="72" height="72" fill="white"/>
</clipPath>
<clipPath id="clip1_5150_2681">
<rect width="72" height="72" fill="white"/>
</clipPath>
</defs>
</svg>
