<svg width="72" height="72" viewBox="0 0 72 72" fill="none" xmlns="http://www.w3.org/2000/svg">
<path d="M24.1793 30.7249C20.3896 30.7233 16.6725 31.7643 13.4353 33.7338C10.1981 35.7033 7.56571 38.5254 5.82641 41.8908C4.0871 45.2563 3.30805 49.0353 3.57457 52.8138C3.84109 56.5924 5.14286 60.2247 7.33737 63.313C9.53188 66.4012 12.5344 68.8261 16.0161 70.3222C19.4977 71.8182 23.3241 72.3277 27.0762 71.7946C30.8282 71.2616 34.3611 69.7067 37.2878 67.3003C40.2146 64.8939 42.4222 61.7287 43.6689 58.1516C45.0775 58.1516 46.3511 58.1516 47.3931 58.1516C53.7224 58.1516 68.465 57.4765 68.465 51.266V42.876C68.485 42.6836 68.485 42.4897 68.465 42.2974C68.4839 42.1243 68.4839 41.9497 68.465 41.7766V34.9488C68.4849 34.7629 68.4849 34.5754 68.465 34.3895C68.4849 34.21 68.4849 34.0289 68.465 33.8494V26.2502C68.4849 26.0643 68.4849 25.8768 68.465 25.6909C68.467 25.374 68.4081 25.0597 68.2913 24.7651C68.3703 24.4826 68.4092 24.1904 68.4071 23.8971V15.5842C68.4271 15.3983 68.4271 15.2108 68.4071 15.0249C68.427 14.8455 68.427 14.6643 68.4071 14.4849V6.88563C68.4271 6.69971 68.4271 6.51219 68.4071 6.32627C68.3974 5.84284 68.2757 5.36824 68.0513 4.93984C67.827 4.51145 67.5062 4.14094 67.1143 3.85749C62.8111 0.212162 49.0912 0 47.2773 0C45.4635 0 31.7243 0.135012 27.4212 3.85749C26.8849 4.21415 26.4893 4.74593 26.3019 5.3619C26.1943 5.67239 26.1357 5.99775 26.1283 6.32627C26.1083 6.51219 26.1083 6.69971 26.1283 6.88563V14.4849C26.1084 14.6643 26.1084 14.8455 26.1283 15.0249C26.1083 15.2108 26.1083 15.3983 26.1283 15.5842V23.9743C26.1358 24.2669 26.1746 24.5579 26.2441 24.8422C26.1363 25.1394 26.0776 25.452 26.0704 25.768C26.0505 25.9539 26.0505 26.1414 26.0704 26.3274V30.8213C25.442 30.758 24.8109 30.7258 24.1793 30.7249ZM66.0529 51.1696V51.401C65.9371 53.7155 57.601 55.5864 47.3931 55.5864C46.3704 55.5864 45.4635 55.5864 44.4022 55.5864C44.6905 54.2101 44.8327 52.8072 44.8266 51.401C44.8266 51.0346 44.8266 50.6874 44.8266 50.3209H47.4124C52.1594 50.3209 61.634 49.9352 66.0722 47.1385L66.0529 51.1696ZM66.0529 43.2617V43.4739C65.9371 45.7884 57.601 47.6593 47.3931 47.6593C46.3897 47.6593 45.4634 47.6593 44.4793 47.6593C44.0855 45.5052 43.3494 43.428 42.2988 41.5066C44.2284 41.6223 46.0037 41.6609 47.3931 41.6609C52.1401 41.6609 61.6147 41.2944 66.0529 38.4785V43.2617ZM66.0529 23.82V24.0322C65.9371 26.3466 57.601 28.2175 47.3931 28.2175C37.1852 28.2175 28.8298 26.2888 28.714 24.0322V18.9789C33.1522 21.7948 42.6268 22.1613 47.3931 22.1613C52.1594 22.1613 61.6147 21.7948 66.0529 18.9789V23.82ZM47.3931 3.12458C57.9869 3.12458 64.5478 5.0533 65.667 6.32627C64.5671 7.56067 57.9483 9.528 47.3931 9.528C36.8379 9.528 30.2192 7.59925 29.1 6.32627C30.2192 5.09188 36.78 3.12458 47.3931 3.12458ZM47.3931 12.5561C49.0719 12.5561 60.9007 12.5561 66.0529 9.58586V15.3721C65.9371 17.6866 57.601 19.5575 47.3931 19.5575C37.1852 19.5575 28.8298 17.6287 28.714 15.3721V9.58586C33.9048 12.4597 45.7143 12.5561 47.3931 12.5561ZM47.3931 31.9979C49.0719 31.9979 60.9007 31.9014 66.0529 29.0083V34.7945C65.9371 37.109 57.601 38.9799 47.3931 38.9799C44.9231 38.9799 42.5883 38.8642 40.4464 38.6713C37.5074 34.92 33.3634 32.2972 28.714 31.2457V29.0276C33.9048 31.9014 45.7143 31.9979 47.3931 31.9979ZM42.183 51.2853C42.1868 54.8452 41.1342 58.3263 39.1583 61.2881C37.1823 64.25 34.3719 66.5594 31.0825 67.9244C27.793 69.2894 24.1724 69.6485 20.6788 68.9563C17.1851 68.2642 13.9754 66.5518 11.4556 64.0359C8.93582 61.52 7.21918 58.3136 6.52294 54.8223C5.8267 51.3311 6.18215 47.7119 7.54424 44.4226C8.90633 41.1333 11.2139 38.3217 14.175 36.3435C17.1361 34.3653 20.6177 33.3094 24.1793 33.3094C28.9475 33.3298 33.5128 35.24 36.8736 38.6209C40.2344 42.0018 42.1161 46.5772 42.1059 51.3432L42.183 51.2853Z" fill="#322153"/>
<circle cx="24.3008" cy="51.3" r="13.5" fill="#01AA90"/>
<path d="M22.5436 42.3729V43.8704C21.8332 44.126 21.1885 44.545 20.6583 45.0957C19.9008 45.9428 19.483 47.0549 19.4894 48.2074C19.4853 48.8086 19.6008 49.4044 19.8288 49.9577C20.1663 50.7427 20.7079 51.4158 21.3936 51.9026C22.0829 52.3777 22.8231 52.7692 23.5994 53.0694C24.0377 53.2294 24.4459 53.4662 24.806 53.7696C24.8681 53.8312 24.9191 53.9036 24.9568 53.9835C24.971 54.0541 24.971 54.1269 24.9568 54.1975C24.9605 54.2715 24.9471 54.3455 24.9176 54.4131C24.8881 54.4808 24.8434 54.5402 24.7871 54.5864C24.5389 54.7645 24.2408 54.8534 23.9388 54.8393C23.1848 54.8549 22.4455 54.6234 21.8272 54.178L21.3182 53.8474C21.2088 53.7713 21.0844 53.7213 20.9539 53.7011C20.8235 53.6809 20.6903 53.691 20.5641 53.7307C20.4423 53.7752 20.3318 53.8472 20.2404 53.9414C20.1491 54.0356 20.0793 54.1497 20.0362 54.2753L19.2255 56.5896C19.1636 56.7722 19.1594 56.9704 19.2136 57.1557C19.2678 57.3409 19.3776 57.5036 19.5272 57.6203L19.8288 57.8343C20.3639 58.2121 20.9565 58.4948 21.5821 58.6706L22.2986 58.8456V60.1681C22.2985 60.2847 22.3211 60.4001 22.3649 60.5076C22.4087 60.615 22.4729 60.7124 22.5537 60.7939C22.6345 60.8754 22.7302 60.9395 22.8353 60.9823C22.9404 61.0251 23.0528 61.0459 23.1658 61.0433H25.3528C25.4658 61.0459 25.5781 61.0251 25.6832 60.9823C25.7883 60.9395 25.8841 60.8754 25.9649 60.7939C26.0457 60.7124 26.1099 60.615 26.1537 60.5076C26.1975 60.4001 26.22 60.2847 26.22 60.1681V58.515C26.9879 58.2253 27.6744 57.7443 28.2184 57.1147C28.9513 56.2548 29.3537 55.1479 29.3496 54.003C29.3524 53.4215 29.2632 52.8434 29.0857 52.2915C28.7845 51.5285 28.2975 50.8586 27.6717 50.3467C27.0101 49.8223 26.2803 49.3968 25.5036 49.0825C24.9828 48.8955 24.4931 48.6265 24.0519 48.2852L23.9388 48.1685C23.9356 48.1296 23.9356 48.0906 23.9388 48.0518C23.9156 47.9892 23.9156 47.9199 23.9388 47.8573C24.1346 47.7096 24.3759 47.6405 24.6175 47.6628C25.009 47.6563 25.3985 47.7222 25.7675 47.8573C26.0069 47.9364 26.235 48.0475 26.4462 48.1879L26.9364 48.4602C27.0493 48.5117 27.1713 48.5382 27.2946 48.5382C27.418 48.5382 27.54 48.5117 27.6529 48.4602C27.7704 48.4135 27.8777 48.343 27.9683 48.2528C28.059 48.1626 28.1312 48.0546 28.1807 47.9351L29.0103 45.6596C29.0866 45.4619 29.0904 45.2422 29.021 45.0417C28.9516 44.8412 28.8137 44.6737 28.6332 44.5705L28.2939 44.3566C27.7095 44.0042 27.0723 43.7545 26.4085 43.6176V42.3729C26.4085 42.1356 26.3172 41.9081 26.1545 41.7403C25.9919 41.5725 25.7713 41.4783 25.5413 41.4783H23.3543C23.1343 41.4931 22.9279 41.5938 22.7773 41.76C22.6267 41.9262 22.5431 42.1454 22.5436 42.3729ZM24.2781 44.5316V43.248H24.7495V44.3761C24.7482 44.5974 24.8265 44.8114 24.9693 44.9766C25.1121 45.1418 25.3091 45.2466 25.5224 45.2707C26.1171 45.3173 26.6985 45.4755 27.2381 45.7374L27.0119 46.3404L26.4085 46.0875C25.8602 45.9061 25.2877 45.8142 24.7118 45.8152C24.0212 45.7786 23.3442 46.023 22.8265 46.4959C22.6395 46.6905 22.4917 46.9212 22.3914 47.1749C22.2911 47.4285 22.2403 47.7001 22.242 47.974C22.2383 48.2748 22.2961 48.573 22.4117 48.8492C22.533 49.1214 22.7137 49.361 22.9396 49.5493C23.5435 50.0274 24.2183 50.4018 24.938 50.6579C25.5693 50.9086 26.1604 51.2561 26.6913 51.6886C27.0987 52.0093 27.412 52.4401 27.5963 52.9333C27.7137 53.2902 27.7711 53.6651 27.766 54.0419C27.7688 54.7593 27.5135 55.4523 27.0495 55.9867C26.5873 56.519 25.9735 56.8866 25.2962 57.0369C25.1069 57.085 24.9387 57.1976 24.819 57.3564C24.6993 57.5151 24.6349 57.7109 24.6363 57.9121V59.2346H24.1461V58.0288C24.1428 57.8108 24.0624 57.6016 23.9201 57.4404C23.7778 57.2793 23.5833 57.1773 23.3732 57.1536C22.9709 57.1153 22.5732 57.0371 22.1855 56.9202C21.8463 56.8181 21.5178 56.6813 21.2051 56.5118L21.4125 55.8894C22.2286 56.326 23.1326 56.5591 24.0519 56.5702C24.7685 56.6115 25.4743 56.3757 26.0315 55.9089C26.2749 55.6961 26.4703 55.4308 26.6038 55.1318C26.7374 54.8328 26.8058 54.5072 26.8044 54.178C26.8134 53.8626 26.7576 53.5487 26.6406 53.2571C26.5237 52.9654 26.3482 52.7027 26.1258 52.486C25.5808 51.9825 24.9381 51.6046 24.2404 51.3775C23.5818 51.1278 22.95 50.8084 22.3551 50.4245C21.9274 50.1257 21.5829 49.7167 21.3559 49.2381C21.232 48.9095 21.1681 48.56 21.1674 48.2074C21.1553 47.8503 21.2124 47.4944 21.3354 47.1604C21.4585 46.8265 21.6449 46.5212 21.8838 46.2625C22.3203 45.7893 22.8856 45.4638 23.5051 45.329C23.7031 45.3078 23.888 45.217 24.0288 45.0718C24.1695 44.9266 24.2576 44.7359 24.2781 44.5316Z" fill="white"/>
</svg>
