<svg width="72" height="72" viewBox="0 0 72 72" fill="none" xmlns="http://www.w3.org/2000/svg">
<path d="M38.5 56C49.2696 56 58 47.2696 58 36.5C58 25.7304 49.2696 17 38.5 17C27.7304 17 19 25.7304 19 36.5C19 47.2696 27.7304 56 38.5 56Z" fill="#50D8C8"/>
<path d="M55.4706 48.0141C67.2762 36.2086 67.5567 17.182 56.326 5.02514L58.9813 2.36983C59.4666 1.88445 59.4666 1.0999 58.9813 0.614523C58.4959 0.129143 57.7113 0.129143 57.226 0.614523L53.7153 4.12514C53.23 4.61052 53.23 5.39507 53.7153 5.88045C64.8468 17.0131 64.8468 35.1273 53.7153 46.2588C42.5814 57.3902 24.4697 57.3902 13.337 46.2588C12.8516 45.7734 12.0671 45.7734 11.5817 46.2588L8.07107 49.7694C7.58569 50.2548 7.58569 51.0393 8.07107 51.5247C8.31313 51.7668 8.63093 51.8885 8.94872 51.8885C9.26651 51.8885 9.58431 51.7668 9.82638 51.5247L12.4817 48.8694C18.084 54.0447 25.1425 56.7758 32.2854 57.0588V69.5173H23.5958C22.9093 69.5173 22.3544 70.0722 22.3544 70.7587C22.3544 71.4451 22.9093 72 23.5958 72H43.4578C44.1443 72 44.6992 71.4451 44.6992 70.7587C44.6992 70.0722 44.1443 69.5173 43.4578 69.5173H34.7682V57.0588C42.2959 56.7596 49.7355 53.748 55.4706 48.0141Z" fill="#322153"/>
<path d="M33.526 52.1379C47.8999 52.1379 59.595 40.4429 59.595 26.069C59.595 11.695 47.8999 0 33.526 0C19.1521 0 7.45703 11.695 7.45703 26.069C7.45703 40.4429 19.1521 52.1379 33.526 52.1379ZM10.5841 31.4541C13.3536 33.655 17.7952 35.3892 23.23 36.365C24.2057 41.7997 25.9399 46.2414 28.1409 49.0109C19.4587 46.9713 12.6237 40.1363 10.5841 31.4541ZM33.526 2.48276C36.4668 2.48276 39.6398 7.45945 41.2114 15.3745C38.7894 15.0654 36.2123 14.8966 33.526 14.8966C30.8397 14.8966 28.2625 15.0654 25.8406 15.3745C27.4122 7.45945 30.5852 2.48276 33.526 2.48276ZM33.526 17.3793C36.4408 17.3793 39.1557 17.5903 41.6483 17.9466C42.0046 20.4393 42.2157 23.1542 42.2157 26.069C42.2157 28.9837 42.0046 31.6986 41.6483 34.1913C39.1557 34.5476 36.4408 34.7586 33.526 34.7586C30.6112 34.7586 27.8963 34.5476 25.4037 34.1913C25.0474 31.6986 24.8363 28.9837 24.8363 26.069C24.8363 23.1542 25.0474 20.4393 25.4037 17.9466C27.8963 17.5903 30.6112 17.3793 33.526 17.3793ZM44.2205 18.3836C52.1355 19.9552 57.1122 23.1281 57.1122 26.069C57.1122 29.0098 52.1355 32.1828 44.2205 33.7543C44.5296 31.3324 44.6984 28.7553 44.6984 26.069C44.6984 23.3826 44.5296 20.8055 44.2205 18.3836ZM33.526 49.6552C30.5852 49.6552 27.4122 44.6785 25.8406 36.7634C28.2625 37.0726 30.8397 37.2414 33.526 37.2414C36.2123 37.2414 38.7894 37.0726 41.2114 36.7634C39.6398 44.6785 36.4668 49.6552 33.526 49.6552ZM22.8315 33.7543C14.9165 32.1828 9.93979 29.0098 9.93979 26.069C9.93979 23.1281 14.9165 19.9552 22.8315 18.3836C22.5224 20.8055 22.3536 23.3826 22.3536 26.069C22.3536 28.7553 22.5224 31.3324 22.8315 33.7543ZM38.9111 49.0109C41.1121 46.2414 42.8463 41.7997 43.822 36.365C49.2568 35.3892 53.6984 33.655 56.4679 31.4541C54.4283 40.1363 47.5933 46.9713 38.9111 49.0109ZM56.4679 20.6839C53.6984 18.4829 49.2568 16.7487 43.822 15.773C42.8463 10.3382 41.1121 5.89655 38.9111 3.12703C47.5933 5.16662 54.4283 12.0017 56.4679 20.6839ZM28.1409 3.12703C25.9399 5.89655 24.2057 10.3382 23.23 15.773C17.7952 16.7487 13.3536 18.4829 10.5841 20.6839C12.6237 12.0017 19.4587 5.16662 28.1409 3.12703Z" fill="#322153"/>
</svg>
