<svg width="72" height="72" viewBox="0 0 72 72" fill="none" xmlns="http://www.w3.org/2000/svg">
<g clip-path="url(#clip0_5150_2669)">
<circle cx="36" cy="29" r="9" fill="#01AA90"/>
<path d="M64.3263 56.6674C60.5632 56.6674 57.5085 59.2646 56.8149 62.7916H37.5274V59.9877C49.643 59.2203 59.3089 49.4954 60.0025 37.365H64.3263C65.2412 37.365 65.861 36.7452 65.861 35.8303V15.1703C69.388 14.4767 71.9852 11.422 71.9852 7.65895C71.9852 3.36462 68.6206 0 64.3263 0C60.032 0 56.6674 3.36462 56.6674 7.65895C56.6674 11.422 59.2646 14.4767 62.7916 15.1703V34.3103H59.9729C59.1465 22.3275 49.5249 12.7502 37.5126 11.9975V7.65895C37.5126 6.74401 36.8928 6.12421 35.9779 6.12421H15.1703C14.4767 2.59725 11.422 0 7.65895 0C3.36462 0 0 3.36462 0 7.65895C0 11.9533 3.36462 15.3179 7.65895 15.3179C11.422 15.3179 14.4767 12.7206 15.1703 9.19369H34.4579V11.9975C22.4456 12.7502 12.8387 22.3275 11.9975 34.3103H7.65895C6.74401 34.3103 6.12421 34.9301 6.12421 35.845V56.8297C2.59725 57.5233 0 60.578 0 64.341C0 68.6354 3.36462 72 7.65895 72C11.9533 72 15.3179 68.6354 15.3179 64.341C15.3179 60.578 12.7206 57.5233 9.19369 56.8297V37.365H11.9975C12.6764 49.4954 22.357 59.2203 34.4726 59.9877V64.3263C34.4726 65.2412 35.0924 65.861 36.0074 65.861H56.8297C57.5233 69.388 60.578 71.9852 64.341 71.9852C68.6354 71.9852 72 68.6206 72 64.3263C72 60.032 68.6206 56.6674 64.3263 56.6674ZM59.7368 7.65895C59.7368 5.06169 61.729 3.06948 64.3263 3.06948C66.9235 3.06948 68.9158 5.06169 68.9158 7.65895C68.9158 10.2562 66.9235 12.2484 64.3263 12.2484C61.729 12.2484 59.7368 10.2562 59.7368 7.65895ZM7.65895 12.2484C5.06169 12.2484 3.06948 10.2562 3.06948 7.65895C3.06948 5.06169 5.06169 3.06948 7.65895 3.06948C10.2562 3.06948 12.2484 5.06169 12.2484 7.65895C12.2484 10.2562 10.2562 12.2484 7.65895 12.2484ZM12.2484 64.3263C12.2484 66.9235 10.2562 68.9158 7.65895 68.9158C5.06169 68.9158 3.06948 66.9235 3.06948 64.3263C3.06948 61.729 5.06169 59.7368 7.65895 59.7368C10.2562 59.7368 12.2484 61.729 12.2484 64.3263ZM47.636 53.5979C44.3009 55.8114 40.3017 57.0953 35.9926 57.0953C31.8164 57.0953 27.9352 55.8852 24.6591 53.7897V50.853C24.6591 46.8686 27.8762 43.8139 31.6983 43.8139H40.5821C44.5665 43.8139 47.6212 47.0309 47.6212 50.853V53.5979H47.636ZM14.9047 35.9926C14.9047 24.3345 24.3493 14.8899 36.0074 14.8899C47.6655 14.8899 57.1101 24.3345 57.1101 35.9926C57.1101 41.9988 54.6014 47.4294 50.5579 51.2662V50.8383C50.5579 45.1716 45.9684 40.7297 40.4493 40.7297H31.5655C25.8987 40.7297 21.4569 45.3191 21.4569 50.8383V51.2662C17.4282 47.4294 14.9047 41.9988 14.9047 35.9926ZM64.341 68.9158C61.7438 68.9158 59.7516 66.9235 59.7516 64.3263C59.7516 61.729 61.7438 59.7368 64.341 59.7368C66.9383 59.7368 68.9305 61.729 68.9305 64.3263C68.9305 66.9235 66.9383 68.9158 64.341 68.9158Z" fill="#322153"/>
</g>
<defs>
<clipPath id="clip0_5150_2669">
<rect width="72" height="72" fill="white"/>
</clipPath>
</defs>
</svg>
